<svg height="440" viewBox="0 0 481 440" width="481" xmlns="http://www.w3.org/2000/svg"><g fill="none" fill-rule="evenodd"><path d="m463.197626 227.164566h-159.979848c-9.048463 0-16.451446-7.403653-16.451446-16.451446v-93.677138c0-9.048463 7.402983-16.450777 16.451446-16.450777h159.979848c9.048462 0 16.450776 7.402314 16.450776 16.450777v93.677138c0 9.047793-7.402314 16.451446-16.450776 16.451446" fill="#fff"/><path d="m462.235921 100.585205h-158.057108c-9.576865 0-17.412481 7.835617-17.412481 17.412481v1.074886h192.88207v-1.074886c0-9.576864-7.834947-17.412481-17.412481-17.412481" fill="#fff1a0"/><path d="m373.911111 334.034338h86.692725c10.136073 0 18.428432 8.293029 18.428432 18.428432v53.061187c0 10.135404-8.292359 18.428433-18.428432 18.428433h-86.692725c-10.135403 0-18.427762-8.293029-18.427762-18.428433v-53.061187c0-10.135403 8.292359-18.428432 18.427762-18.428432" fill="#35dbe8"/><path d="m349.96761 304.903076s-5.19344-19.350342-12.613118-34.967285c-4.090384-8.609443-11.286187-14.914421-17.409347-17.271986-17.261796-6.64621-26.736195-4.679939-26.736195-4.679939s5.11659-3.536743 4.454916-8.021796c-.663014-4.483714-8.086758-8.05796-8.086758-8.05796l-28.284566 1.013272s-6.632816 2.468554-7.046028 7.418387c-.411872 4.949163 3.522679 7.648097 3.522679 7.648097s-15.173637-.772177-23.975647 3.249437c-8.802009 4.021613-21.00414 8.865632-27.523774 28.543744-6.520305 19.678113-7.074599 43.391532-7.074599 43.391532l-27.153543 7.520752s-2.703788 5.096057-1.423971 8.310669l6.739275 29.837869s4.930952 16.263693 22.239585 18.009787c17.308632 1.746094 23.447304-9.901611 23.447304-9.901611s-7.159013 50.812311-11.829576 62.198065h127.944231s-9.434216-36.252786-12.323349-65.428737c0 0-2.889132-22.576621-1.514885-31.512572 0 0 2.716347 24.262283 19.962739 28.330106 17.246393 4.067154 27.740092-5.647001 33.78892-19.944657 6.048828-14.296987 9.623074-40.394277 10.872755-48.206454 1.24901-7.812177 5.602188-35.911903 5.602188-35.911903s-6.558617-7.282823-20.323771-8.950015c-13.765155-1.667192-12.388497 3.646558-14.078178 8.204609z" fill="#26666b"/><path d="m231.460274 321.647367h-120.125358c-9.047793 0-16.4514457-7.403653-16.4514457-16.451446v-73.550989c0-9.048463 7.4036527-16.451446 16.4514457-16.451446h120.125358c9.048463 0 16.451446 7.402983 16.451446 16.451446v73.550989c0 9.047793-7.402983 16.451446-16.451446 16.451446" fill="#fff"/><path d="m206.585875 105.02204c0 20.452968-16.58003 37.033668-37.033668 37.033668-20.452968 0-37.033668-16.5807-37.033668-37.033668 0-20.4529685 16.5807-37.0343383 37.033668-37.0343383 20.453638 0 37.033668 16.5813698 37.033668 37.0343383" fill="#ffca65"/><path d="m251.792024 205.347397s-5.693881-21.97723 4.86478-25.021735c0 0 4.258021-4.600913 8.233424-6.343501 0 0-9.894977-12.139178-7.450532-18.763287 2.443774-6.62277 9.408767-8.272938 17.840426-8.364688 8.431659-.091751 17.707823 2.474581 18.24761 8.982161.540457 6.50691-7.91933 17.945571-7.91933 17.945571s12.352146 3.167062 12.926758 13.460517c.573942 10.293455-.850533 17.123166-.850533 17.123166l-2.859665 2.098204-40.99032 2.489315z" fill="#ffca65"/><path d="m294.313303 220.169437s11.317443 3.471781 11.539117-7.220822c0 0-.78758-9.019665-10.501735-6.488158l-.525723-2.115617s-8.091446 1.430502-17.681035-5.304109c-9.589589-6.734612-14.872938-11.498935-14.872938-11.498935s-4.633729 11.177473-6.534368 13.885114l-.013394 5.232451s-9.181735-2.860335-10.850655 6.289254c0 0 .026789 7.292481 5.871355 7.847001 5.843896.554521 5.565297-1.080913 5.565297-1.080913s1.345449 11.25449 7.638051 14.516652l-.609436 8.260213s4.427458 4.061796 12.859117 3.060578c8.431659-1.000548 11.040852-3.248767 11.040852-3.248767l-.472816-8.072024s6.105084-4.018265 7.548311-14.061918" fill="#fff"/><path d="m468.18898 229.315008-34.131141-21.124688c-1.445906-.894734-3.302344.199573-3.2193 1.89796l1.964262 40.090898c.077686 1.585875 1.812907 2.521461 3.180456 1.715129l9.226606-5.44073c1.004566-.591355 2.298448-.257839 2.890472.746727l13.416316 22.752755c.591355 1.004567 1.885906 1.338752 2.889803.746058l7.302526-4.305571c1.003897-.592024 1.338082-1.885905.746058-2.889802l-13.416317-22.753424c-.592024-1.004567-.257838-2.297778.746058-2.889802l8.365358-4.932421c1.367549-.807001 1.38831-2.77729.038843-3.613089" fill="#ffca65"/><path d="m167.071598 146.181126v14.550137s1.289193 7.25029 10.775647 7.25029c9.485784 0 11.515008-6.478783 11.515008-6.478783l.454064-15.313607s-9.276835 4.296864-22.744719-.008037" fill="#1a1a1a"/><path d="m186.584292 258.004749c0 8.387458-6.799574 15.187032-15.186362 15.187032-8.387458 0-15.187032-6.799574-15.187032-15.187032s6.799574-15.186362 15.187032-15.186362c8.386788 0 15.186362 6.798904 15.186362 15.186362" fill="#ffca65"/><path d="m469.652968 109.661126c0 2.972177-2.409619 5.381796-5.382466 5.381796-2.971507 0-5.381796-2.409619-5.381796-5.381796 0-2.972846 2.410289-5.383135 5.381796-5.383135 2.972847 0 5.382466 2.410289 5.382466 5.383135" fill="#ffca65"/><path d="m453.644871 109.661126c0 2.972177-2.40962 5.381796-5.382466 5.381796-2.972177 0-5.382466-2.409619-5.382466-5.381796 0-2.972846 2.410289-5.383135 5.382466-5.383135 2.972846 0 5.382466 2.410289 5.382466 5.383135" fill="#fff"/><path d="m437.636104 109.661126c0 2.972177-2.40962 5.381796-5.382466 5.381796-2.972177 0-5.381796-2.409619-5.381796-5.381796 0-2.972846 2.409619-5.383135 5.381796-5.383135 2.972846 0 5.382466 2.410289 5.382466 5.383135" fill="#fff"/><path d="m173.227512 330.32761 2.103323.894142.861792 5.100542s-6.339581.208231-6.936994-1.981748 3.250306-4.012936 3.250306-4.012936z" fill="#1a1a1a"/><path d="m192.889275 325.199977 1.683086 6.270934s8.386108-4.170247 6.789461-6.777604c-1.596175-2.606895-8.797857-.233424-8.797857-.233424" fill="#1a1a1a"/><path d="m370.764052 269.077856c-1.516225.99586-10.54086-2.889828-9.306132-7.460669 1.234729-4.57084 12.437588-4.455566 12.437588-4.455566-1.076374 7.280696-2.120193 11.252774-3.131456 11.916235z" fill="#1a1a1a"/><path d="m383.193115 270.620729s11.717448.012757 12.353004-4.150836c.503622-3.298325-8.021127-6.407123-8.021127-6.407123s-4.675438 7.534213-4.331877 10.557959z" fill="#1a1a1a"/><path d="m127.470259 241.160183c0 3.400791-2.757869 6.157991-6.158661 6.157991-3.401461 0-6.15866-2.7572-6.15866-6.157991 0-3.401462 2.757199-6.158661 6.15866-6.158661 3.400792 0 6.158661 2.757199 6.158661 6.158661" fill="#186bf3"/><path d="m241.039817 269.957747c0 3.401462-2.757199 6.157991-6.15866 6.157991-3.400792 0-6.157991-2.756529-6.157991-6.157991 0-3.401461 2.757199-6.15866 6.157991-6.15866 3.401461 0 6.15866 2.757199 6.15866 6.15866" fill="#186bf3"/><path d="m310.880609 164.478965h29.951476v-29.951476h-29.951476z" fill="#ffca65"/><path d="m297.684627 204.365601s1.424475-6.829711.850533-17.123166c-.574612-10.293455-12.926758-13.460517-12.926758-13.460517s8.459787-11.438661 7.91933-17.945571c-.456743-5.501674-7.157869-8.177169-14.313059-8.820761 3.784536 4.320304 11.39312 15.428128-.397808 25.637199 0 0 11.364322 4.491081 9.623074 17.321401-1.740578 12.830989-20.896316 2.749163-20.896316 2.749163s6.709832 8.795981 11.217656 14.716225l16.064353-.975769z" fill="#fff"/><path d="m393.309954 400.314277c-.192207 0-.384414-.076347-.526392-.227032l-19.532786-20.671294c-.270563-.285966-.264536-.733333.012725-1.010593l19.533455-19.531446c.283957-.283288.742709-.283288 1.026667 0 .283287.283957.283287.742709 0 1.026666l-19.035191 19.033182 19.048585 20.157625c.274581.289985.261857.749406-.028798 1.024658-.139969.133272-.318782.198234-.498265.198234" fill="#fff"/><path d="m467.800548 439.869406h-372.9177474c-.3998173 0-.7252968-.324809-.7252968-.725296 0-.399818.3254795-.724628.7252968-.724628h372.9177474c.399817 0 .725297.32481.725297.724628 0 .400487-.32548.725296-.725297.725296" fill="#00343d"/><path d="m265.144049 206.479878c.5793-.09108.967732.156713 1.13382 2.243531.18551 2.327915-.41723 2.738448-.938934 2.717017-.521705-.020761-1.046089-.738691-1.02064-2.400913.025449-1.662892.066302-2.439757.825754-2.559635" fill="#00343d"/><path d="m285.025753 206.670746c.581979-.076347.963045.182161 1.074217 2.272998.125235 2.331264-.488889 2.725054-1.009924 2.690898-.521705-.035494-1.025997-.766819-.957017-2.427701.06898-1.660883.130594-2.437078.892724-2.536195" fill="#00343d"/><path d="m252.422222 221.708432c-.174125 0-.349589-.004018-.524383-.014733-2.208037-.13997-4.231233-1.131812-5.694551-2.790016-1.463988-1.660213-2.193303-3.791902-2.053334-6.000608.137961-2.208037 1.127124-4.231233 2.786667-5.696561 1.660213-1.461978 3.749041-2.226118 6.001279-2.054003.886697.054917 1.745266.249803 2.553607.572603.371689.148676.552511.570594.401826.944292-.148675.368341-.565905.551842-.943622.401157-.664353-.266545-1.372238-.423257-2.103562-.471476-1.800182-.089741-3.576256.489558-4.949832 1.697047-1.369559 1.208158-2.184597 2.875068-2.300457 4.698691-.113181 1.822283.487549 3.580274 1.695038 4.947823 1.208158 1.369559 2.877078 2.186606 4.698691 2.302466 1.229589.060944 2.47793-.186179 3.576256-.753425.354277-.175464.792937-.04621.978447.309407.183501.356286.04621.793607-.310076.979117-1.177351.611446-2.485966.928219-3.811994.928219" fill="#00343d"/><path d="m250.755982 217.98417c-.216987 0-.430624-.095768-.575282-.281948-.244444-.316103-.18551-.773516.131263-1.01796l4.342405-3.353242-4.864779-3.599696c-.320122-.238417-.388432-.691811-.150015-1.015281.239756-.321462.69449-.391111 1.015281-.150685l5.636287 4.169619c.180821.135282.289984.34758.292691.576621.001981.227032-.103163.44134-.281976.581309l-5.102527 3.940579c-.131263.102465-.288645.150684-.443348.150684" fill="#00343d"/><path d="m298.30344 221.708432c-1.328037 0-2.633973-.316773-3.811994-.928219-.355616-.18551-.493577-.622831-.310076-.979117.188189-.355617.62484-.484871.978447-.309407 1.094978.567246 2.311172.823745 3.574247.753425 1.823622-.11586 3.492542-.932907 4.698691-2.302466 1.208158-1.367549 1.810898-3.12554 1.697717-4.947823-.11653-1.821613-.933577-3.490533-2.303136-4.698691-1.368889-1.207489-3.134916-1.786788-4.949832-1.697047-.779544.050228-1.533638.227032-2.243531.53108-.353608.161401-.790929-.013394-.952329-.384414-.154703-.36968.015403-.795616.384414-.952328.860578-.367672 1.778082-.583988 2.719695-.642923 2.204019-.143988 4.340396.592025 6.000609 2.056012 1.660213 1.465328 2.652055 3.488524 2.789346 5.696561.139969 2.208706-.589346 4.340395-2.053334 6.000608-1.465327 1.658204-3.488523 2.650046-5.69656 2.790016-.174794.010715-.349589.014733-.522374.014733" fill="#00343d"/><path d="m299.96968 217.98417c-.154703 0-.312085-.048219-.442678-.150684l-5.105206-3.940579c-.178813-.139969-.283957-.354277-.281976-.581309.002707-.229041.1112-.441339.292691-.576621l5.638296-4.169619c.32347-.240426.777534-.170777 1.015951.150685.237747.32347.170107.776864-.150685 1.015281l-4.866788 3.599696 4.344414 3.353242c.316773.244444.375707.701857.131263 1.01796-.144658.18618-.358295.281948-.575282.281948" fill="#00343d"/><path d="m352.946484 372.336438c-.772846 0-1.563775-.030137-2.372116-.093759-12.459969-.974429-25.684079-10.661796-25.439634-34.930776.004018-.399818.327488-.7186.725296-.7186.408524.004018.729316.332176.725297.731324-.233729 23.270441 12.295891 32.547945 24.102892 33.472146.753425.058935 1.491446.087063 2.214734.087063 24.607184 0 30.432998-33.508311 32.385875-44.734673 2.931324-16.854612 9.475738-58.897717 9.54137-59.319635.060944-.397138.426606-.679087.827762-.604749.3958.060944.666363.431964.605419.827763-.065632.423927-6.612055 42.477747-9.545388 59.345753-2.005784 11.531751-7.98898 45.938143-33.771507 45.938143" fill="#00343d"/><path d="m344.002801 335.87652c.928889-10.221127 2.82484-19.675434 4.255343-25.804628 5.647001-24.229467 12.22668-46.246472 12.296329-46.427964.143319-.375707.569924-.558539.936926-.41723.373698.143988.561218.563897.41656.937596-.06965.180822-6.613164 22.112773-12.238735 46.235087-1.417777 6.085662-3.300335 15.47032-4.219848 25.608402-.034824.375708-.351598.659665-.723287.659665-.465449-.040183-.758113-.391111-.723288-.790928z" fill="#00343d"/><path d="m275.356469 237.97102c-3.6372 0-8.844871-.691811-13.003775-3.994825-3.200548-2.542892-5.318843-6.625449-6.476773-12.486088-.766819-3.872938-.932907-16.087793-.865267-20.076591.006698-.395799.330168-.712572.725297-.712572.412542.006697.731324.336195.725297.738691-.072329 4.28347.126575 16.179543.839148 19.771202 1.08761 5.506362 3.036469 9.30965 5.956408 11.629528 3.829406 3.042496 8.694185 3.680731 12.099665 3.680731.399817 0 .725297.325479.725297.724627 0 .400487-.32548.725297-.725297.725297" fill="#00343d"/><path d="m275.356469 237.97102c-.399818 0-.725297-.32481-.725297-.725297 0-.399148.325479-.724627.725297-.724627 3.407488 0 8.272268-.638235 12.101674-3.680731 2.91793-2.317869 4.866789-6.123166 5.954399-11.629528.681765-3.447671.808341-11.968402.727306-16.853272-.006028-.401827.312755-.731325.712572-.738022.408524 0 .731994.316774.738021.711903.056926 3.424901.032816 13.183257-.753424 17.158661-1.15793 5.860639-3.276226 9.945875-6.474764 12.486088-4.159574 3.303014-9.368585 3.994825-13.005784 3.994825" fill="#00343d"/><path d="m293.891385 205.091568c-13.790685 0-27.95239-12.933455-31.576195-16.481583-.916834 2.901187-3.444992 10.367793-6.035434 13.297108-.268554.294673-.727305.329498-1.024657.062953-.298691-.265876-.326819-.725297-.062953-1.023988 2.966149-3.353242 6.057534-13.8014 6.087671-13.908554.074338-.247123.273242-.43933.524384-.499604.251141-.056926.517686.016742.697169.202922.166088.174125 17.09102 17.540396 32.291446 16.878721.472146.045541.7407.294673.758112.692481.018083.399818-.292663.740031-.691811.757443-.321461.013394-.644931.022101-.967732.022101" fill="#00343d"/><path d="m263.442314 242.755434c-.467459-.041522-.759453-.39513-.722618-.795617.388432-4.047062.502283-7.713059.502283-7.749893.010715-.399817.288645-.677078.747397-.703196.399148.010715.713912.344901.703196.747397 0 .036834-.113851 3.75038-.506971 7.845662-.037504.375708-.351598.655647-.723287.655647" fill="#00343d"/><path d="m287.237139 242.399148c-.37102 0-.688463-.281949-.722618-.657656-.364993-3.951294-.474156-7.453212-.474156-7.487367-.013394-.400487.303379-.734673.703197-.747397.413211 0 .736012.310076.747397.703196 0 .034825.109163 3.492542.469467 7.396286.036834.399817-.257169.754094-.655647.790929-.02344.002009-.04554.002009-.06764.002009" fill="#00343d"/><path d="m251.939361 206.585693c-.310076 0-.598722-.200914-.692481-.51099-.187519-.604749-4.499787-14.893029-.091751-22.385753 1.27379-2.162496 3.147641-3.554155 5.579361-4.139483.875982-1.186058 4.977961-6.260456 11.990502-7.492724 9.969315-1.762679 25.777839.718599 29.64408 11.708554 1.731872 4.925723 1.741248 10.552633.032815 21.505753-.058934.39513-.443348.681096-.827762.604749-.395799-.060944-.666362-.432633-.605419-.827762 1.66691-10.685906 1.675617-16.129316.032816-20.801888-3.586971-10.18831-18.547641-12.431172-28.028067-10.760243-7.183988 1.262405-11.168767 7.057412-11.20828 7.116347-.104475.155373-.266545.264535-.449376.304048-2.182587.462771-3.787884 1.614003-4.90898 3.518661-4.087245 6.94624.183501 21.079817.227702 21.221796.11586.384414-.098448.790259-.480853.908798-.071659.019421-.144657.030137-.214307.030137" fill="#00343d"/><path d="m211.213577 439.869406c-.109163 0-.218326-.024109-.321461-.073668-.358296-.177473-.506971-.611446-.329498-.97242 3.656621-7.415708 17.80761-81.264049 13.141735-102.442313-4.758295-21.581431 2.880426-43.078478 2.959452-43.292116.137961-.375708.561218-.575282.928219-.435312.377717.135951.572603.552511.434643.928219-.076347.212298-7.571081 21.326941-2.907215 42.489132 4.711416 21.3765-9.565479 95.910625-13.254916 103.394643-.126576.255829-.384414.403835-.650959.403835" fill="#00343d"/><path d="m339.158478 439.869406c-.266545 0-.524384-.148006-.650959-.403835-3.689437-7.486028-17.962314-82.02484-13.254916-103.394643 4.665875-21.177595-2.828859-42.276834-2.905206-42.489132-.13796-.375708.056926-.792268.434643-.928219.375707-.13997.792937.059604.928219.435312.079026.213638 7.715738 21.710685 2.958112 43.292116-4.661857 21.171567 9.484445 95.023927 13.141066 102.442313.176803.360974.028797.794947-.329498.97242-.103135.049559-.212298.073668-.321461.073668" fill="#00343d"/><path d="m214.135711 385.881043c-5.979438 2.200509-15.729393 3.017972-21.59253 0-11.799294-6.07353-16.136689-15.969254-17.701134-24.189284-.658995-3.458387-1.449924-8.303075-2.289071-13.434399-.738021-4.514521-2.544754-8.482927-3.36448-13.124693-.06965-.395129.194886-.770837.588006-.841156.399818-.087063.770838.192207.841157.588006.821066 4.647793 2.627798 8.622227 3.366489 13.144114.838478 5.119939 1.629406 9.956591 2.282374 13.396895 1.522923 7.997017 8.33745 19.81992 16.500536 22.93015 8.163086 3.110229 15.910279 2.081176 20.63208.324218 6.957065-2.588688 7.288118-6.524503 9.556388-12.195112.147038-.367589.410533-.662344.821066-.616134.291536.04193.696853-.045647.450703 1.015014-2.100098 9.049317-6.814119 11.796232-10.091584 13.002381z" fill="#00343d"/><path d="m214.389206 365.931632c-.308067 0-.592025-.196895-.690472-.502283-6.750015-21.005479-13.585084-39.269163-13.652725-39.450654-.139969-.375708.050229-.794947.423927-.934917.375708-.133272.792938.04621.934917.423258.06764.18417 6.916103 18.480669 13.674155 39.516286.122557.382405-.087063.790928-.467458.912816-.074338.024109-.148676.035494-.222344.035494" fill="#00343d"/><path d="m170.372237 335.338569c-.312085 0-.60073-.200913-.695159-.515677-.770838-2.549589 3.250776-6.601339 7.425083-9.115434.336865-.205601.786911-.098447.994521.246454.20761.343561.098447.788919-.247123.99452-4.373212 2.638661-7.188676 6.111781-6.782831 7.455221.11586.384414-.100457.78825-.484871.904779-.06965.020761-.13997.030137-.20962.030137" fill="#00343d"/><path d="m260.131263 204.244384c-.083044 0-.166088-.013395-.247123-.043532-.377717-.135951-.571933-.553181-.434642-.928889 1.297899-3.582283 6.257777-4.613637 9.213881-3.953302.391111.087062.635556.475494.548493.866605-.087732.391111-.458752.651629-.867275.548494-2.413638-.526393-6.562497.371689-7.532238 3.03178-.106484.295343-.384414.478844-.681096.478844" fill="#00343d"/><path d="m276.369741 227.890533c-1.695038 0-3.068615-.439331-3.167062-.470137-.380396-.124566-.588006-.53242-.465449-.914825.126575-.382405.53309-.588006.915495-.465449.032815.011385 3.547458 1.123105 5.817108-.421248 1.192085-.81236 1.863135-2.258935 1.99172-4.300883.024109-.400487.413211-.71927.769497-.677747.399818.024109.702527.36901.679087.768828-.159391 2.514764-1.04207 4.335707-2.629954 5.413272-1.218874.827763-2.654064 1.068189-3.910442 1.068189" fill="#00343d"/><path d="m270.249254 220.894064c-.172785 0-.345571-.060944-.48487-.18551-.253821-.227702-2.490655-2.29175-2.558296-4.430807-.025449-.796956.259848-1.522252.825754-2.098873.650959-.664353 1.422465-1.000548 2.289071-1.000548.946302.002009 1.822283.41723 2.468554.837138.444019-3.995494.751416-9.598965-.054916-10.826545-.218326-.334185-.126575-.784231.210289-1.004566.327489-.221004.781553-.124566 1.004566.20962 1.452603 2.210715.358296 11.291324.124567 13.088828-.034825.275251-.224354.504962-.48688.594033-.266545.09242-.554521.017413-.749407-.178813-.34691-.353607-1.476712-1.267093-2.516773-1.267093-.469467 0-.88.18618-1.253698.565906-.294673.299361-.423258.627519-.410533 1.035373.041522 1.29723 1.513546 2.889802 2.077443 3.396773.297351.266545.32347.725297.054916 1.023988-.141979.160061-.341552.241096-.539787.241096" fill="#00343d"/><path d="m259.776986 184.769863c-.227032 0-.450045-.106484-.592024-.305388l-2.337291-3.298326c-.23105-.328158-.154703-.780213.172786-1.011933.32347-.227032.780213-.154703 1.011263.172786l2.337291 3.298325c.23172.327489.155373.780213-.172786 1.011933-.126575.089072-.272572.132603-.419239.132603" fill="#00343d"/><path d="m130.92968 361.648219c1.835678 0 3.323775-1.488767 3.323775-3.323775 0-1.836347-1.488097-3.324444-3.323775-3.324444-1.835677 0-3.323774 1.488097-3.323774 3.324444 0 1.835008 1.488097 3.323775 3.323774 3.323775" fill="#186bf3"/><path d="m155.492664 361.402435c1.700395 0 3.07866-1.378265 3.07866-3.077991 0-1.700395-1.378265-3.07933-3.07866-3.07933-1.701066 0-3.079331 1.378935-3.079331 3.07933 0 1.699726 1.378265 3.077991 3.079331 3.077991" fill="#186bf3"/><g transform="translate(360 237)"><path d="m6.30493164 31.0600586s3.16582003-12.5114343 2.728673-14.6395743c-.43772298-2.12814-4.59436347-6.82156713-6.65281339-8.55230077-2.05729802-1.73073364-2.07918417-5.19623257 0-6.36023014 2.08033607-1.16342161 5.35173942.00979117 8.49816135 2.74210411 3.14527 2.73346484 7.0600109 6.9586435 8.478579 6.905656 0 0 10.8261565-8.16583743 15.4285832-9.34538568 4.6030028-1.17954825 6.7714594-1.42893516 7.9371848.47400791 0 0 3.831804.19927915 4.7158892 2.91316165 0 0 3.2725553-.66349589 4.4428883 1.32008036 1.1697571 1.98415221-.437147 5.82747516-4.2516725 8.49470566-3.8139494 2.6678064-9.6558234 6.0572797-13.9103756 7.1625303-4.2545522 1.1052505-5.9392097 10.642428-5.9392097 10.642428s-5.8790441 1.9487432-14.8956211 0c-1.4103585-.3048193-3.60378073-.890547-6.58026656-1.7571831z" fill="#fff"/><g fill="#00343d"><path d="m6.16480453 31.5113234c-.31389346-.1445637-.44866606-.5166283-.30640609-.8282179 1.93289254-4.1837102 3.38485247-14.1664373 2.35735536-15.8251771-1.36961217-2.2076213-2.87802861-3.5069674-4.33633729-4.7642691-.56097656-.48264716-1.10237077-.95089556-1.6057522-1.44448582-3.02777596-2.96269345-2.31244445-5.24749224-1.86320244-6.09068493.85643957-1.60805601 2.93216804-2.43627397 5.0303586-1.99509528 3.76499361.77580639 8.30521763 5.22272633 11.95156533 8.79535221l.3231086.31792511c2.1004944 2.05326641 9.5982284 2.05153851 12.3161425 1.88220881.354786-.0506837.6410338.2384439.6611921.5822868.0224621.3438429-.2384438.6404578-.5822868.6611921-.4210204.0322532-10.3435092.6237552-13.2664621-2.235267l-.3248365-.3179251c-3.3439732-3.27428313-7.92393789-7.76209561-11.33011385-8.46475619-1.55737229-.31562131-3.07673181.23729193-3.6762971 1.35982101-.67040731 1.26075738-.07487367 2.94253516 1.63224596 4.61452176.48667885.47515982 1.00906667.92382588 1.55046089 1.38977047 1.45773272 1.25672575 3.11071293 2.68105325 4.57996468 5.05166885 1.68120182 2.7110027-1.40127621 15.0960227-2.28248169 17.0047252-.10712694.2292287-.3323239.3628494-.56731203.3628494-.08812055 0-.17681705-.0190064-.26090593-.0564433z"/><path d="m27.7813952 33.4409969c-.4359951-.058747-.6692554-.377824-.6162679-.7182112.0622028-.4095014 1.5855939-10.0215526 6.4114898-11.1550247 4.6755726-1.0983391 16.8062588-7.0139349 18.0946618-13.00325236.1745133-.80978752-.0282216-1.50899239-.5880463-2.02331689-.7873254-.72281888-2.1171969-.92267398-3.4620432-.50741309-2.7732055.84204079-12.9963409 6.75936434-13.0977084 6.81753544-.1203738.0696901-.2683933.0846649-.3910709.0812092-.1105826-.0155507-10.370003-1.2342637-14.9424803 3.7114301-.2384439.2557224-.6323946.2689692-.8806296.035709-.2534185-.2344122-.2689692-.6289388-.035709-.8806296 4.6778765-5.0649156 14.2098704-4.3006283 15.8029516-4.1289948 1.4329669-.8287939 10.4483325-6.00026056 13.1800695-6.83078233 1.7750818-.54139421 3.5599549-.23671598 4.6721168.78329376.875446.80633181 1.2267763 1.97436104.9635666 3.20516895-1.5049608 6.98628922-14.9609108 12.99922072-19.0300067 13.95357202-3.3307264.7838697-5.0741309 7.5783671-5.4652019 10.1298313-.046652.3098618-.3115896.5298752-.6156919.5298752"/><path d="m25.1815511 12.8138773c-.2084944 0-.4135331-.1053991-.5316031-.2966149-.1808487-.2931592-.0886965-.6784707.2044627-.8587434 1.667955-1.0274971 16.4077005-10.09757809 19.3790332-9.70477931 2.6286417.2897035 3.6486515 2.33893821 3.8214368 3.38141005.0564433.33981126-.1745132.66176803-.5143245.71763531-.342691.05817108-.6594642-.17451324-.7176353-.51259665-.0190064-.11288646-.414109-2.093007-2.7242496-2.34700152-1.9593863-.22692481-12.4249973 5.73589893-18.5905559 9.52853822-.1013674.0622027-.2142538.0921522-.3265643.0921522"/><path d="m19.0361508 11.7806207c-.2027349 0-.402014-.0996396-.5218119-.2822162-.1883361-.2873997-.1094308-.6744389.1802727-.8639269.2591781-.1687537 6.3700214-4.17967855 7.8260262-4.95778875.6969011-.37148858 1.5216633-.85989528 2.4212993-1.39380213 3.1038015-1.83670867 6.964403-4.12323531 9.7952036-4.26779908 3.890551-.23153242 4.6813321 2.27673546 4.7112816 2.38213455.0921522.33232389-.1013674.67616682-.4319635.77004688-.3282922.07890532-.6721351-.09963958-.768319-.42447611-.0282216-.0886965-.5724956-1.63800548-3.4470685-1.48019482-2.5243945.12786119-6.3947872 2.41957138-9.2221321 4.09270989-.9186423.54542588-1.7601072 1.0430478-2.4685273 1.4225997-1.4087768.75161644-7.6682155 4.86045297-7.7321461 4.90134547-.1053991.0696901-.2234691.1013675-.342115.1013675"/></g></g><path d="m367.209961 268.910156c-3.567479-1.188719-5.849616-2.777115-6.573506-4.040263-.598722-1.046758-.358729-1.891444-.299361-2.425023.492506-4.426448 3.85465-6.046479 8.373858-5.380786.395799.059604.668372.427945.611446.825753-.058265.39513-.423257.657656-.825084.612116-3.265509-.483531-6.35205.60184-6.35205 4.167603 0 3.565762 2.620824 4.177501 7.177134 5.349243 6.807166 1.750592 16.009796 2.009882 18.662016 1.724641 4.028311-.432633 6.583257-1.522253 6.835068-2.913912.235739-1.299239.510039-1.903717-4.444482-4.159972-.364992-.166089-.524384-.596713-.358295-.961035.164079-.362984.594033-.526393.961035-.358296 4.14417 1.887245 5.7685 2.991328 5.270236 5.737142-.388433 2.151781-3.193181 3.569558-8.108859 4.099969-1.368889.146667-2.856316.221005-4.431476.221005-2.339415 0-10.269355-.422846-16.49768-2.498185z" fill="#00343d"/><path d="m106.367367 386.209863c1.835677 0 3.323775-1.487428 3.323775-3.323775 0-1.835007-1.488098-3.323105-3.323775-3.323105-1.835678 0-3.323775 1.488098-3.323775 3.323105 0 1.836347 1.488097 3.323775 3.323775 3.323775" fill="#186bf3"/><path d="m130.92968 386.373942c1.926089 0 3.487854-1.561096 3.487854-3.487854 0-1.926088-1.561765-3.487184-3.487854-3.487184-1.926088 0-3.487184 1.561096-3.487184 3.487184 0 1.926758 1.561096 3.487854 3.487184 3.487854" fill="#186bf3"/><path d="m155.492664 386.128158c1.790137 0 3.2414-1.451263 3.2414-3.24207 0-1.790137-1.451263-3.24207-3.2414-3.24207-1.790807 0-3.24207 1.451933-3.24207 3.24207 0 1.790807 1.451263 3.24207 3.24207 3.24207" fill="#186bf3"/><path d="m106.367367 410.527732c1.700396 0 3.07866-1.378265 3.07866-3.07866 0-1.699726-1.378264-3.078661-3.07866-3.078661s-3.078661 1.378935-3.078661 3.078661c0 1.700395 1.378265 3.07866 3.078661 3.07866" fill="#186bf3"/><path d="m130.92968 410.691142c1.790807 0 3.24207-1.451264 3.24207-3.24207 0-1.790807-1.451263-3.24207-3.24207-3.24207-1.790806 0-3.24207 1.451263-3.24207 3.24207 0 1.790806 1.451264 3.24207 3.24207 3.24207" fill="#186bf3"/><path d="m155.492664 410.472816c1.669589 0 3.023744-1.353486 3.023744-3.023744 0-1.670259-1.354155-3.024414-3.023744-3.024414-1.670259 0-3.024414 1.354155-3.024414 3.024414 0 1.670258 1.354155 3.023744 3.024414 3.023744" fill="#186bf3"/><path d="m57.3237747 361.48414c1.7459361 0 3.1603653-1.415099 3.1603653-3.159696 0-1.745936-1.4144292-3.161035-3.1603653-3.161035-1.7445966 0-3.1596956 1.415099-3.1596956 3.161035 0 1.744597 1.415099 3.159696 3.1596956 3.159696" fill="#186bf3"/><path d="m81.886758 361.648219c1.8350076 0 3.323105-1.488767 3.323105-3.323775 0-1.836347-1.4880974-3.324444-3.323105-3.324444-1.8356773 0-3.3244445 1.488097-3.3244445 3.324444 0 1.835008 1.4887672 3.323775 3.3244445 3.323775" fill="#186bf3"/><path d="m106.449072 361.402435c1.700395 0 3.07866-1.378265 3.07866-3.077991 0-1.700395-1.378265-3.07933-3.07866-3.07933-1.700396 0-3.078661 1.378935-3.078661 3.07933 0 1.699726 1.378265 3.077991 3.078661 3.077991" fill="#186bf3"/><path d="m57.3237747 386.209863c1.8356774 0 3.3237748-1.487428 3.3237748-3.323775 0-1.835007-1.4880974-3.323105-3.3237748-3.323105-1.8356773 0-3.3237747 1.488098-3.3237747 3.323105 0 1.836347 1.4880974 3.323775 3.3237747 3.323775" fill="#186bf3"/><path d="m81.886758 386.373942c1.9260883 0 3.4871842-1.561096 3.4871842-3.487854 0-1.926088-1.5610959-3.487184-3.4871842-3.487184s-3.4871842 1.561096-3.4871842 3.487184c0 1.926758 1.5610959 3.487854 3.4871842 3.487854" fill="#186bf3"/><path d="m106.449072 386.128158c1.790806 0 3.24207-1.451263 3.24207-3.24207 0-1.790137-1.451264-3.24207-3.24207-3.24207-1.790807 0-3.24207 1.451933-3.24207 3.24207 0 1.790807 1.451263 3.24207 3.24207 3.24207" fill="#186bf3"/><path d="m57.3237747 410.527732c1.7010655 0 3.0793303-1.378265 3.0793303-3.07866 0-1.699726-1.3782648-3.078661-3.0793303-3.078661-1.7003957 0-3.0786605 1.378935-3.0786605 3.078661 0 1.700395 1.3782648 3.07866 3.0786605 3.07866" fill="#186bf3"/><path d="m81.886758 410.691142c1.790137 0 3.24207-1.451264 3.24207-3.24207 0-1.790807-1.451933-3.24207-3.24207-3.24207-1.7908067 0-3.24207 1.451263-3.24207 3.24207 0 1.790806 1.4512633 3.24207 3.24207 3.24207" fill="#186bf3"/><path d="m106.449072 410.472816c1.670258 0 3.023744-1.353486 3.023744-3.023744 0-1.670259-1.353486-3.024414-3.023744-3.024414-1.670259 0-3.023745 1.354155-3.023745 3.024414 0 1.670258 1.353486 3.023744 3.023745 3.023744" fill="#186bf3"/><path d="m167.796225 147.165601v11.664353c0 4.646454 3.783197 8.425632 8.433668 8.425632h4.375891c4.648463 0 8.431659-3.779178 8.431659-8.425632v-11.642252c-6.876591 2.007123-14.382709 1.998417-21.241218-.022101zm12.809559 21.540579h-4.375891c-5.450106 0-9.884261-4.430137-9.884261-9.876226v-11.974429c0-.247123.006697-.489558.028128-.729315.019421-.221005.13796-.419909.32347-.541796.188189-.120548.419909-.148676.622831-.085723 7.136438 2.305145 15.046393 2.31586 22.195555.026788.207611-.06764.435312-.034825.620153.084384.1835.122557.304048.319452.32347.539787.0221.236408.028798.472146.028798.705875v11.974429c0 5.446089-4.432147 9.876226-9.882253 9.876226z" fill="#00343d"/><path d="m178.456012 74.6278843c-20.024353 0-36.315738 16.2873668-36.315738 36.3070317 0 15.834643 10.117991 29.725784 25.179787 34.563775 7.136438 2.305145 15.046393 2.31586 22.195555.026788 15.103319-4.823257 25.249437-18.725114 25.249437-34.590563 0-20.0196649-16.288706-36.3070317-36.309041-36.3070317zm0 74.0666667c-3.96067 0-7.857047-.608767-11.581309-1.814916-15.662526-5.030868-26.185023-19.47653-26.185023-35.944719 0-20.8199693 16.942344-37.7576253 37.766332-37.7576253 20.821309 0 37.759635 16.937656 37.759635 37.7576253 0 16.501005-10.552633 30.955373-26.258691 35.970837-3.702161 1.188067-7.57309 1.788798-11.500944 1.788798z" fill="#00343d"/><path d="m191.527428 107.514033c-.1393 0-.303379.02411-.495586.083045-.871964.271233-1.441888 1.149223-1.767367 1.837016-.476164 1.009255-.668371 2.033912-.552512 2.962131.202923 1.627398 1.407063 3.207245 3.217291 4.222527.152694.085053.308067.168767.46344.246453.692481-1.397686 1.067519-2.94003 1.074886-4.554033.008706-1.790807-.43933-3.943257-1.313303-4.589528-.131263-.098448-.325479-.207611-.626849-.207611zm-28.233668-.488888c-.141979 0-.281279.038843-.425267.117869-1.202131.657656-2.147762 3.545449-2.339969 4.97796-.338874 2.532177.342892 5.115921 1.867823 7.088889.565906.731324 1.236286 1.380274 2.011811 1.948189.915495-1.797504 1.433181-4.065145 1.450594-6.515617.010715-1.486088-.18618-2.944718-.581309-4.339056l-.078356-.279269c-.261857-.946302-.699178-2.527489-1.486089-2.894491-.145996-.069649-.285296-.104474-.419238-.104474zm-7.127733 19.980152c-.405844 0-.794946-.010716-1.159939-.026119-.401826-.016743-.711902-.355616-.69449-.756103.020091-.401157.362983-.652968.756104-.693821 2.186605.095769 5.329558.010716 7.391598-1.787458.434642-.381735.837138-.829772 1.197443-1.336743-.930898-.661004-1.732542-1.432511-2.40895-2.308493-1.758661-2.276347-2.545571-5.253881-2.156469-8.167793.133273-.997869 1.048098-4.947154 3.082009-6.059543.688463-.377717 1.433181-.391111 2.155799-.054917 1.38965.651629 1.918052 2.558296 2.268311 3.82271l.075677.271233c.432633 1.524931.646941 3.121522.635556 4.742222-.010716 1.483409-.226362 4.559391-1.658204 7.29382 2.885784 1.581857 6.938204 2.291751 12.187397 2.15379 3.020396-.078356 5.537169-.510989 7.695647-1.321339 2.645358-.993851 4.750928-2.629955 6.125175-4.65516-.146667-.076347-.292664-.155373-.437321-.235738-2.214734-1.240974-3.689437-3.226667-3.951294-5.310137-.148676-1.201461.087732-2.503379.683775-3.761766.448036-.950319 1.271781-2.173211 2.647367-2.601157 1.144535-.358965 1.94417-.009376 2.416316.342223 1.828311 1.356834 1.904658 5.037564 1.89997 5.762861-.006028 1.823623-.423257 3.562862-1.194764 5.140031 3.609071 1.393668 7.96487 1.528949 12.165297 1.530958.401826 0 .725296.32548.725296.725297 0 .401827-.325479.725297-.725296.725297-4.419422-.002009-9.010959-.150685-12.885906-1.706423-1.535647 2.363409-3.929863 4.264049-6.957626 5.401887-2.311172.869955-4.981978 1.330716-8.167793 1.41376-5.574003.146666-9.857473-.631537-12.981004-2.36341-.419909.592025-.908798 1.149224-1.484079 1.649498-2.083471 1.818935-4.938448 2.170533-7.245602 2.170533z" fill="#00343d"/><path d="m461.443653 227.890533c-.399817 0-.724627-.32548-.724627-.725297s.32481-.725297.724627-.725297c9.637808 0 17.481461-7.486027 17.481461-16.689193v-27.355008c0-.399817.321461-.725297.723288-.725297.401826 0 .723287.32548.723287.725297v27.355008c0 10.0028-8.488584 18.139787-18.928036 18.139787" fill="#00343d"/><path d="m286.116712 144.279817c-.399817 0-.725296-.325479-.725296-.724627v-25.558173c0-10.000122 8.491263-18.1371083 18.930045-18.1371083h157.122192c10.439452 0 18.928036 8.1369863 18.928036 18.1371083v25.328462c0 .399148-.321461.725297-.723287.725297-.401827 0-.723288-.326149-.723288-.725297v-25.328462c0-9.200487-7.843653-16.686515-17.481461-16.686515h-157.122192c-9.637808 0-17.479452 7.486028-17.479452 16.686515v25.558173c0 .399148-.325479.724627-.725297.724627" fill="#00343d"/><path d="m405.579726 227.890533h-98.864049c-.399817 0-.725296-.32548-.725296-.725297s.325479-.725297.725296-.725297h98.864049c.399817 0 .725297.32548.725297.725297s-.32548.725297-.725297.725297" fill="#00343d"/><path d="m230.499239 322.70484h-22.066971c-.399148 0-.724627-.326149-.724627-.725297 0-.399817.325479-.725296.724627-.725296h22.066971c9.201157 0 16.687184-7.486028 16.687184-16.686515v-71.961096c0-9.203166-7.486027-16.688523-16.687184-16.688523h-43.914947c-.399817 0-.725297-.32615-.725297-.725967s.32548-.725297.725297-.725297h43.914947c10.000791 0 18.137778 8.137656 18.137778 18.139787v71.961096c0 10.000122-8.136987 18.137108-18.137778 18.137108" fill="#00343d"/><path d="m155.495647 322.70484h-43.199026c-10.002131 0-18.1391172-8.136986-18.1391172-18.137108v-71.961096c0-10.002131 8.1369862-18.139787 18.1391172-18.139787h29.011202c.399818 0 .725297.32548.725297.725297s-.325479.725967-.725297.725967h-29.011202c-9.202496 0-16.6885236 7.485357-16.6885236 16.688523v71.961096c0 9.200487 7.4860276 16.686515 16.6885236 16.686515h43.199026c.399817 0 .725297.325479.725297.725296 0 .399148-.32548.725297-.725297.725297" fill="#00343d"/><path d="m199.120609 322.617108c-.39312 0-.716591-.314764-.725297-.709893-.006697-.332177-.574612-33.458752 13.683531-55.361644 14.368646-22.082375 46.24755-19.159757 46.564323-19.122253.399817.039513.690472.395129.64895.792938-.038844.397138-.406515.723287-.792938.648949-.310076-.028797-31.319696-2.859665-45.206149 18.471294-14.008341 21.522496-13.45382 54.21309-13.447123 54.539909.008706.400487-.308067.731994-.709894.7407-.004688 0-.011385 0-.015403 0" fill="#00343d"/><path d="m349.195801 305.856201c-1.117233-3.375252-2.305664-7.492187-7.022949-21.694092-.562715-1.694114-4.890904-18.103745-13.603882-24.915893-13.556823-10.599255-35.108883-10.556229-35.285013-10.540402-.403835.054917-.755433-.249132-.794946-.64694-.041522-.397139.246453-.755434.646271-.794947.137241-.016894 8.43394-.087478 17.520846 1.989613 4.545323 1.038973 9.635238 2.719456 13.554199 4.995483 13.216065 7.675538 15.980977 18.837465 17.357422 22.694581 4.249325 11.907583 7.860571 24.997822 9.004307 28.457864.126576.379726-.081035.790258-.460761.915494-.074337.026119-.150684.037504-.227701.037504-.303379 0-.587337-.192877-.687793-.498265z" fill="#00343d"/><path d="m121.311598 237.492846c-2.022526 0-3.667336 1.64481-3.667336 3.668006 0 2.022527 1.64481 3.668006 3.667336 3.668006 2.022527 0 3.668006-1.645479 3.668006-3.668006 0-2.023196-1.645479-3.668006-3.668006-3.668006zm0 8.785936c-2.822161 0-5.11726-2.295768-5.11726-5.11793 0-2.822161 2.295099-5.118599 5.11726-5.118599 2.822831 0 5.11793 2.296438 5.11793 5.118599 0 2.822162-2.295099 5.11793-5.11793 5.11793z" fill="#fff"/><path d="m234.881157 266.654734c-1.821614 0-3.303014 1.4814-3.303014 3.303013 0 1.821614 1.4814 3.303014 3.303014 3.303014 1.822283 0 3.303013-1.4814 3.303013-3.303014 0-1.821613-1.48073-3.303013-3.303013-3.303013zm0 8.055951c-2.621248 0-4.752938-2.13169-4.752938-4.752938s2.13169-4.753607 4.752938-4.753607c2.621918 0 4.753607 2.132359 4.753607 4.753607s-2.131689 4.752938-4.753607 4.752938z" fill="#fff"/><path d="m121.58484 253.869285c-.379726 0-.701187-.294673-.725297-.679087-.266545-4.310259-.272572-7.309224-.272572-7.636712 0-.399818.32481-.724628.724627-.724628.399818 0 .725297.32481.725297.724628 0 .3228.009376 3.278904.273242 7.544961.02411.401827-.279939.744719-.679087.770838-.015403 0-.030806 0-.04621 0zm1.745936 15.042374c-.345571 0-.651628-.245114-.714581-.596712-.425936-2.345997-.792938-4.884201-1.094308-7.540274-.04621-.397808.239757-.756104.639574-.801644.389102-.022101.758113.242435.801644.639574.297352 2.623927.662344 5.129315 1.080913 7.444505.072329.39312-.189528.770837-.584657.843166-.043531.006697-.087732.011385-.128585.011385zm31.625084 9.290228c-.113181 0-.227032-.026118-.331507-.081704-.356286-.182831-.496256-.619483-.312755-.975769.622831-1.205479 1.225571-2.43105 1.826302-3.645906.517686-1.050776 1.033363-2.094855 1.555068-3.114825.183501-.355616.62484-.502283.977108-.316773.355617.183501.497595.620152.316104.976439-.519696 1.015951-1.030685 2.053333-1.546363 3.097412-.605418 1.222892-1.212176 2.45516-1.839695 3.667336-.128585.251812-.381735.39379-.644262.39379zm-27.363714 5.190259c-.270563 0-.531081-.153364-.655647-.413211-.978447-2.048646-1.865144-4.478357-2.635981-7.215465-.107154-.383744.11519-.78624.502283-.894733.382404-.109833.784231.113181.895403.502283.748737 2.658082 1.605297 5.006088 2.548919 6.983074.172786.362984.020092.795617-.342892.967732-.099787.04822-.20761.07032-.312085.07032zm18.211446 6.620761c-.235738 0-.469467-.11586-.607428-.330167-.218325-.336195-.124566-.784232.211629-1.002557 1.800183-1.172664 3.471111-2.852968 5.105205-5.133334.235739-.327488.690472-.399817 1.011264-.168097.328158.233729.402496.685784.168097 1.011263-1.740578 2.433729-3.538752 4.233242-5.492968 5.505023-.123227.080365-.260517.117869-.395799.117869zm-7.472633 2.188615c-2.556286 0-4.893577-.952329-6.944901-2.833546-.296682-.269894-.316773-.729315-.04554-1.023988.273242-.294673.734003-.310076 1.024657-.04621 1.778082 1.627397 3.783196 2.45315 5.965784 2.45315l.350928-.004018c.408524 0 .732664.316773.738691.711903.006697.399817-.312085.731994-.711902.738691z" fill="#00343d"/><path d="m183.499604 266.449802c-.239756 0-.474155-.118539-.613455-.336195-.36968-.585997-.743379-1.145205-1.118417-1.673607-.233729-.327489-.157382-.780213.168098-1.013272.327488-.227702.777534-.155373 1.013272.170106.391111.550502.778204 1.131142 1.164627 1.738569.213638.338874.113851.786241-.225023 1.003227-.120548.075677-.25516.111172-.389102.111172zm6.828372 13.483958c-.277261 0-.541796-.159392-.661675-.430625-1.275799-2.856316-2.254246-4.964566-3.175768-6.834398-.177474-.360974-.028798-.794947.329497-.97242.354277-.172786.794947-.030137.971751.329497.931568 1.887915 1.916042 4.010898 3.198539 6.887976.164079.364323 0 .794947-.367002.957017-.096438.043531-.196895.062953-.295342.062953zm43.323592 2.656742c-.502283-.06831-.777535-.437321-.7186-.83245.652968-4.362496.849863-7.455891.849863-7.486028.02411-.397808.419239-.692481.770837-.677077.399818.024109.703866.367001.679087.768828-.002009.030137-.202922 3.178447-.862588 7.607914-.054246.360975-.364992.618813-.718599.618813zm-37.150198 11.155373c-.270563 0-.53309-.152694-.655647-.415221-1.06551-2.254246-2.105571-4.576133-3.132237-6.904718-.161401-.367001.004018-.794947.371689-.957017.364992-.1614.792938.006697.956347.37169 1.022648 2.31519 2.058021 4.628371 3.114825 6.869893.172785.362314.018082.794947-.344231.965723-.101127.04755-.205602.06965-.310746.06965zm33.782222 3.592999c-.074338 0-.153364-.010716-.227702-.036834-.379726-.124567-.587336-.535099-.460761-.914825.727306-2.204688 1.391659-4.637748 1.972299-7.234886.085053-.388433.470137-.644932.867275-.548493.391781.087062.635556.476164.548493.867275-.592024 2.643349-1.269102 5.122618-2.011811 7.370168-.100457.306057-.384414.497595-.687793.497595zm-26.309589 9.530654c-.220335 0-.436651-.099787-.57863-.287975-1.347458-1.788798-2.690898-3.901736-4.108676-6.46137-.194216-.349589-.06965-.792938.281948-.985815.342223-.200243.790259-.066971.985145.281949 1.386301 2.49936 2.695586 4.557382 3.999513 6.291263.242435.320791.176804.775525-.141979 1.015951-.131263.098448-.283957.145997-.437321.145997zm19.050594 3.580274c-.190198 0-.377717-.073668-.522375-.220335-.27726-.288645-.270563-.746727.017413-1.026666 1.52694-1.478722 2.951415-3.477139 4.233242-5.936987.188188-.356286.627519-.489558.981126-.310076.354277.18484.491568.62484.308067.978448-1.356164 2.599147-2.87239 4.722131-4.513181 6.312694-.1393.135281-.322801.202922-.504292.202922zm-8.099483 3.510624c-2.044627 0-4.067823-.64694-6.009315-1.920061-.336864-.220335-.428615-.67038-.210289-1.004566.223683-.334186.675068-.428615 1.005236-.210289 2.2 1.443896 4.497108 1.883227 6.648889 1.583866.373698-.050228.764809.220335.819056.618813.054916.395129-.220335.762131-.617473.819056-.531081.074338-1.074886.113181-1.636104.113181z" fill="#00343d"/><path d="m403.631537 400.314277c-.139969 0-.281948-.039513-.406514-.124566-.331507-.222344-.419239-.674399-.194216-1.006576l27.101857-40.20207c.224353-.334185.675068-.421917 1.007245-.194216.331507.222344.419239.675069.194216 1.007245l-27.101857 40.201401c-.13997.20761-.369011.318782-.600731.318782" fill="#fff"/><path d="m438.252237 400.314277c-.179482 0-.358295-.064962-.498264-.198234-.290655-.275252-.303379-.734673-.028798-1.024658l19.048585-20.157625-19.034521-19.033182c-.284627-.283957-.284627-.742709 0-1.026666.283288-.283288.742709-.283288 1.025997 0l19.533455 19.531446c.27726.27726.283288.724627.012725 1.010593l-19.532786 20.671294c-.141979.150685-.334186.227032-.526393.227032" fill="#fff"/><g fill="#00343d"><path d="m471.91793 119.797199h-177.092298c-.399148 0-.725297-.325479-.725297-.725296 0-.399818.326149-.725297.725297-.725297h177.092298c.399817 0 .725297.325479.725297.725297 0 .399817-.32548.725296-.725297.725296"/><path d="m464.270502 106.857047c-1.546362 0-2.804079 1.257717-2.804079 2.804749 0 1.544353 1.257717 2.80274 2.804079 2.80274 1.546363 0 2.804749-1.258387 2.804749-2.80274 0-1.547032-1.258386-2.804749-2.804749-2.804749zm0 7.057413c-2.345997 0-4.255342-1.907337-4.255342-4.252664 0-2.345997 1.909345-4.255342 4.255342-4.255342s4.255343 1.909345 4.255343 4.255342c0 2.345327-1.909346 4.252664-4.255343 4.252664z"/><path d="m448.263075 106.857047c-1.546363 0-2.804749 1.257717-2.804749 2.804749 0 1.544353 1.258386 2.80274 2.804749 2.80274 1.544353 0 2.802739-1.258387 2.802739-2.80274 0-1.547032-1.258386-2.804749-2.802739-2.804749zm0 7.057413c-2.345997 0-4.255343-1.907337-4.255343-4.252664 0-2.345997 1.909346-4.255342 4.255343-4.255342s4.253333 1.909345 4.253333 4.255342c0 2.345327-1.907336 4.252664-4.253333 4.252664z"/><path d="m432.253638 106.857047c-1.546363 0-2.804749 1.257717-2.804749 2.804749 0 1.544353 1.258386 2.80274 2.804749 2.80274 1.546362 0 2.804749-1.258387 2.804749-2.80274 0-1.547032-1.258387-2.804749-2.804749-2.804749zm0 7.057413c-2.345997 0-4.255343-1.907337-4.255343-4.252664 0-2.345997 1.909346-4.255342 4.255343-4.255342s4.254673 1.909345 4.254673 4.255342c0 2.345327-1.908676 4.252664-4.254673 4.252664z"/><path d="m264.888889 174.708798c-.203592 0-.406515-.085054-.550502-.251142-.443349-.517686-10.843288-12.745936-7.058083-20.996773 2.118965-4.621674 8.22271-6.965662 18.137108-6.965662 9.906363 0 15.978631 2.321887 18.052055 6.904718 3.70484 8.195921-6.865875 20.347824-7.31726 20.860822-.264536.299361-.725297.330167-1.022648.065632-.30137-.263866-.332177-.722618-.065632-1.021979.102466-.120548 10.404627-11.964384 7.081522-19.308432-1.814916-4.014247-7.443836-6.050168-16.728037-6.050168-9.296925 0-14.953972 2.060031-16.817777 6.118478-3.401461 7.407002 6.736621 19.327184 6.839756 19.445054.259848.304048.227032.7628-.076347 1.024657-.13796.117869-.306058.174795-.474155.174795"/><path d="m435.495708 239.078721c.97175 0 1.919391.498265 2.450472 1.393669l13.414977 22.753424c.187519.318113.488889.545815.847184.639574.360304.089741.734003.038843 1.048767-.148676l7.301857-4.30557c.319452-.187519.546484-.488889.640244-.847185.09175-.358295.039512-.731994-.148676-1.048767l-13.416317-22.754764c-.385084-.652968-.494246-1.415099-.303379-2.149772.189528-.734003.654977-1.350136 1.305936-1.733881l8.364018-4.93242c.421918-.249132.677078-.687793.681766-1.177351.006027-.489559-.238417-.934917-.654977-1.195434l-34.131811-21.123349c-.448037-.274581-.985145-.285966-1.432512-.014733-.452724.266544-.705875.736012-.679756 1.260395l1.963592 40.092238c.024109.486879.294673.919513.725297 1.151902.427945.231051.934916.222344 1.360852-.026788l9.227276-5.4414c.452054-.266545.945631-.391112 1.43519-.391112zm17.064231 26.282801c-.238417 0-.478173-.030137-.713912-.091081-.734003-.190867-1.350137-.653637-1.734551-1.306605l-13.414977-22.752755c-.388432-.659665-1.247001-.877991-1.89796-.491568l-9.227276 5.4414c-.866605.50898-1.900639.526393-2.786666.054247-.88067-.476165-1.437869-1.356165-1.487428-2.358722l-1.964262-40.092907c-.050228-1.054794.482862-2.044627 1.393668-2.579726.912816-.537108 2.033912-.524383 2.934003.032816l34.131142 21.123349c.851872.526392 1.354155 1.439208 1.34344 2.442435-.011385 1.002557-.53309 1.901979-1.395678 2.411628l-8.364687 4.931751c-.318783.188189-.545815.489558-.639574.847854-.091751.358295-.039513.731324.148675 1.048097l13.416317 22.755434c.384414.652298.493577 1.415769.304049 2.149102-.190198.734673-.655647 1.350137-1.306606 1.734551l-7.302527 4.305571c-.441339.259847-.934916.395129-1.43519.395129z"/><path d="m306.717686 159.217047h28.135221v-28.133211h-28.135221zm28.860518 1.450594h-29.585814c-.399148 0-.724627-.32548-.724627-.725297v-29.583135c0-.399818.325479-.725967.724627-.725967h29.585814c.399817 0 .725297.326149.725297.725967v29.583135c0 .399817-.32548.725297-.725297.725297z"/><path d="m311.75726 200.700944h18.058082v-18.058083h-18.058082zm18.783379 1.450593h-19.508006c-.400487 0-.725297-.325479-.725297-.725297v-19.508675c0-.399818.32481-.725297.725297-.725297h19.508006c.400487 0 .725297.325479.725297.725297v19.508675c0 .399818-.32481.725297-.725297.725297z"/><path d="m457.65376 135.251446h-89.632755c-.399818 0-.724628-.325479-.724628-.724627 0-.399817.32481-.725297.724628-.725297h89.632755c.399817 0 .725296.32548.725296.725297 0 .399148-.325479.724627-.725296.724627"/><path d="m457.65376 158.072511h-89.632755c-.399818 0-.724628-.325479-.724628-.725296 0-.399818.32481-.725297.724628-.725297h89.632755c.399817 0 .725296.325479.725296.725297 0 .399817-.325479.725296-.725296.725296"/><path d="m457.65376 180.892907h-89.632755c-.399818 0-.724628-.325479-.724628-.725297 0-.399817.32481-.725296.724628-.725296h89.632755c.399817 0 .725296.325479.725296.725296 0 .399818-.325479.725297-.725296.725297"/><path d="m171.39793 246.278782c-6.465388 0-11.727976 5.260579-11.727976 11.725967 0 6.466058 5.262588 11.727976 11.727976 11.727976 6.466058 0 11.725966-5.261918 11.725966-11.727976 0-6.465388-5.259908-11.725967-11.725966-11.725967zm0 24.904536c-7.267032 0-13.178569-5.910867-13.178569-13.178569 0-7.265693 5.911537-13.175891 13.178569-13.175891 7.265693 0 13.17656 5.910198 13.17656 13.175891 0 7.267702-5.910867 13.178569-13.17656 13.178569z"/><path d="m275.280122 246.278782c-13.676834 0-14.670685-6.479452-14.70551-6.754033-.052238-.397808.229711-.762801.62417-.812359.404506-.07032.756104.222344.813029.617473.008707.054916.985145 5.498995 13.268311 5.498995 12.242983 0 12.883896-5.400547 12.887915-5.454794.037503-.397808.395129-.690472.779543-.661674.397808.030137.69449.371019.666362.766149-.017412.27793-.616134 6.800243-14.33382 6.800243"/><path d="m261.87653 250.832816c-.102466 0-.205602-.021431-.304049-.064962-5.040913-2.317869-8.051263-6.216926-8.051263-10.432755 0-2.461857 1.419787-5.910868 8.187214-8.349285.39513-.143988.796956.058935.928219.435312.137291.377717-.059604.792938-.434642.92755-4.797138 1.730533-7.230867 4.080548-7.230867 6.986423 0 3.632511 2.695586 7.04 7.208767 9.113425.362313.168097.522374.598721.356286.963044-.122557.264536-.384414.421248-.659665.421248"/><path d="m275.965906 253.389102c-2.058022 0-4.032329-.11653-5.874034-.342892-.397138-.050898-.679087-.413212-.631537-.81035.048889-.395799.397808-.668371.81102-.631537 1.780091.223013 3.697473.334185 5.694551.334185 13.635312 0 20.994094-5.978508 20.994094-11.603409 0-2.9186-2.77863-5.478904-7.82624-7.208767-.378387-.128585-.581309-.541796-.450716-.921522.131263-.380396.544475-.583318.922192-.450046 5.677138 1.944171 8.805358 4.993364 8.805358 8.580335 0 6.328097-7.865754 13.054003-22.444688 13.054003"/><path d="m258.416804 259.664962c-.454734-.032816-.754095-.380396-.723958-.780213.614125-8.147702-.834459-11.310746-.847184-11.340883-.170776-.360974-.019422-.793607.338874-.965723.351598-.176804.788249-.028797.965053.331507.067641.13796 1.640792 3.462405.989833 12.084931-.028798.379726-.346911.670381-.722618.670381"/><path d="m293.104475 259.664962c-.375708 0-.69449-.290655-.722618-.670381-.651629-8.626544.923531-11.868614.991172-12.001887.183501-.357626.620822-.495586.974429-.322801.358295.178813.502283.614125.32548.969742-.015404.030806-1.456621 3.108128-.845175 11.245114.030137.399817-.268554.747397-.668372.777534-.019421.002679-.037504.002679-.054916.002679"/><path d="m159.021674 69.2608219c-.292663 0-.570593-.1788128-.679756-.4694673l-15.533273-41.461796c-.139969-.3763775.050229-.7956164.423927-.935586.377717-.1312633.792268.0502283.934917.4239269l15.533272 41.4617961c.13997.3763775-.050228.7949467-.423927.935586-.085053.030137-.170776.0455403-.25516.0455403"/><path d="m100.252542 197.616925c-.183501 0-.3696805-.070319-.5116592-.209619-.2839574-.281948-.2859665-.7407-.004688-1.026667l46.2924202-46.788006c.283957-.27726.742709-.283957 1.026667-.004688.283957.281948.286636.7407.004688 1.026667l-46.292421 46.788006c-.141978.141979-.327488.214307-.515007.214307"/><path d="m232.362374 172.084871c-.165418 0-.331506-.056256-.468797-.172116l-25.094734-21.256621c-.306058-.257839-.342892-.715921-.083044-1.021979.25583-.29936.716591-.338204 1.021979-.083044l25.094733 21.256621c.306058.257839.342892.716591.083045 1.021979-.141979.168767-.34758.25516-.553182.25516"/><path d="m222.145936 94.3990868c-.250472 0-.495586-.1305936-.628858-.3649924-.198235-.3475799-.078357-.7902588.269223-.9891629l28.113121-16.108554c.34691-.2029224.792937-.0756773.989162.2692237.198905.3469102.079026.7909285-.268554.9898326l-28.11312 16.1072146c-.113851.0656317-.238417.0964384-.360974.0964384"/><path d="m231.563409 226.579909h-30.345936c-.399147 0-.725296-.32548-.725296-.725297s.326149-.725297.725296-.725297h30.345936c.399818 0 .724628.32548.724628.725297s-.32481.725297-.724628.725297"/><path d="m231.563409 234.384718h-14.159025c-.400488 0-.725297-.325479-.725297-.725296 0-.399818.324809-.725297.725297-.725297h14.159025c.399818 0 .724628.325479.724628.725297 0 .399817-.32481.725296-.724628.725296"/><path d="m212.685601 234.384718h-8.112876c-.399818 0-.725297-.325479-.725297-.725296 0-.399818.325479-.725297.725297-.725297h8.112876c.400487 0 .725297.325479.725297.725297 0 .399817-.32481.725296-.725297.725296"/><path d="m123.397747 121.667032h-19.187884c-.399148 0-.725297-.325479-.725297-.725297 0-.399817.326149-.725297.725297-.725297h19.187884c.400487 0 .725297.32548.725297.725297 0 .399818-.32481.725297-.725297.725297"/><path d="m305.99239 1.4499239c-5.738083 0-10.405967 4.67123287-10.405967 10.4093151 0 5.7380822 4.667884 10.4079756 10.405967 10.4079756 5.738082 0 10.409315-4.6698934 10.409315-10.4079756 0-5.73808223-4.671233-10.4093151-10.409315-10.4093151zm0 22.2678843c-6.537717 0-11.85656-5.3181735-11.85656-11.8585692 0-6.54039577 5.318843-11.859239 11.85656-11.859239 6.540395 0 11.859239 5.31884323 11.859239 11.859239 0 6.5403957-5.318844 11.8585692-11.859239 11.8585692z"/><path d="m12.11793 171.987093c-5.73875192 0-10.40864537 4.670563-10.40864537 10.408645s4.66989345 10.408646 10.40864537 10.408646c5.7380822 0 10.4086453-4.670564 10.4086453-10.408646s-4.6705631-10.408645-10.4086453-10.408645zm0 22.267884c-6.54039575 0-11.85923898-5.318843-11.85923898-11.859239 0-6.539726 5.31884323-11.859239 11.85923898-11.859239 6.539726 0 11.8592389 5.319513 11.8592389 11.859239 0 6.540396-5.3195129 11.859239-11.8592389 11.859239z"/><path d="m328.642679 17.4941857c-2.776621-.829102-5.467519-1.567793-8.210655-2.225449-.391111-.0937595-.631537-.4848706-.537777-.8733029.095768-.3897717.469467-.6362253.873972-.5377778 2.77863.6663623 5.498326 1.4137595 8.090776 2.2194216.382405.1178691.596713.5263927.476165.9087976-.095769.3100761-.381735.5083105-.692481.5083105zm15.513851 6.0883409c-.107154 0-.214308-.0234398-.316774-.071659-2.448462-1.1887367-5.00207-2.3051446-7.591172-3.3157382-.373028-.1446576-.556529-.5665754-.410532-.9396043.143988-.3736986.557199-.5659056.939604-.4105327 2.623257 1.0239878 5.21169 2.1557991 7.695647 3.3592694.360304.1747945.510989.6094368.336195.9697412-.126576.2578387-.384414.4085236-.652968.4085236zm14.307701 8.5321157c-.148675 0-.297351-.0435312-.425936-.1372907-2.195312-1.5945814-4.521217-3.1235312-6.913424-4.5480061-.344901-.2029224-.456073-.6489498-.251142-.9931811.202922-.3435617.654977-.4594216.993851-.2518113 2.429041 1.4465754 4.79245 2.998965 7.022587 4.617656.32548.2364079.397809.6904719.16207 1.0139422-.142648.196895-.364992.298691-.588006.298691zm12.490777 11.0314764c-.194217 0-.389102-.076347-.531081-.2310502-1.869833-2.007793-3.864231-3.9479452-5.92828-5.7695586-.299361-.2645358-.328158-.722618-.063623-1.0246575.266545-.2986911.721279-.3294978 1.024658-.0629529 2.099543 1.8524201 4.126088 3.8273973 6.029406 5.8693456.272573.2926636.257169.7514155-.037504 1.0246575-.139969.1312633-.316773.1942161-.493576.1942161zm10.09656 13.2663014c-.243105 0-.480853-.1225571-.618813-.3455708-1.443897-2.3480061-3.018387-4.6437747-4.6786-6.8263622-.242435-.3187824-.181491-.7728463.137291-1.0152816.321461-.2377474.775525-.1794825 1.015951.1372907 1.69035 2.2194216 3.293638 4.5567123 4.761644 6.9442313.210289.3408829.103136.7889194-.237747.9985389-.117869.071659-.248463.1071537-.379726.1071537zm7.319269 14.9954947c-.294673 0-.569924-.1788128-.679087-.4714764-.959025-2.5690107-2.057351-5.1313242-3.270197-7.6126028-.174795-.3603044-.02411-.7956164.334855-.9724201.362313-.1680974.794947-.0261187.97175.3341857 1.229589 2.5254795 2.348006 5.1313242 3.322436 7.7438661.139969.3757077-.050898.7929376-.426606.9329071-.082375.030137-.168098.0455404-.253151.0455404zm4.231233 16.1601217c-.355616 0-.668371-.2618569-.71793-.6241704-.245114-1.7432573-.731994-4.5654186-1.671598-8.1108676-.102466-.3870929.128584-.7842314.515677-.8866971.39513-.1004567.786241.1285844.886697.5156773.957017 3.6150989 1.457291 6.4982039 1.705754 8.2803044.054916.3978082-.220335.7628006-.617474.8190563-.035494.004688-.06831.0066971-.101126.0066971z"/><path d="m290.830807 11.3803957c-.95032-.0194216-1.871842-.0301369-2.790016-.0301369l-.672389.0020091c-.408524.0569254-.727306-.3167732-.731324-.7192694-.004688-.3991477.316103-.72730596.718599-.73065451l.685114-.00267885c.92688 0 1.861797.01071538 2.805419.0308067.399148.00870624.7186.34021306.709894.74003046-.009376.3951294-.332177.7098934-.725297.7098934zm-20.094003 1.2322679c-.354277 0-.665023-.2578386-.717261-.6181431-.060943-.3951293.212299-.7648097.609437-.8230745 2.737778-.4112025 5.544536-.7252968 8.342588-.9335769.41522-.0716591.747397.2712329.777534.6690411.030807.3991476-.268554.7494064-.668371.7775342-2.763227.2076104-5.53516.5150077-8.237443.919513-.034825.0060274-.071659.0087062-.106484.0087062zm-16.245845 3.726271c-.308067 0-.594034-.1989042-.692481-.5063014-.119878-.3824049.09175-.7909285.474155-.9114764 2.66277-.8364688 5.391172-1.5744901 8.108189-2.1953121.39312-.0850532.780213.1580518.869285.5464841.090411.3911111-.154704.7795433-.545815.8692846-2.680852.611446-5.37175 1.3387519-7.995007 2.165175-.073669.0214308-.146667.0321462-.218326.0321462zm-15.452238 6.2698325c-.265205 0-.520365-.1466666-.648949-.3998173-.178813-.3562862-.034825-.7936073.32347-.9744293 2.483288-1.2516894 5.058326-2.4183257 7.651446-3.4711111.364992-.1419787.790928.0281279.946301.3991477.150685.3723592-.028797.7956164-.399817.9469711-2.556286 1.0367123-5.096499 2.1879452-7.546971 3.4222222-.105145.0529071-.216317.0770167-.32548.0770167zm-14.256133 8.6653882c-.225023 0-.445358-.1051446-.587337-.3020396-.235738-.3228006-.1614-.7775343.164079-1.0105936 2.26965-1.6387824 4.626363-3.205236 7.001157-4.6511416.342892-.2076103.78825-.0984475.997869.2424353.207611.3435617.098448.7889194-.241765.9978691-2.344658 1.4271538-4.668554 2.968828-6.910077 4.5861796-.126575.0930898-.274581.1372908-.423926.1372908zm-12.749955 10.7736377c-.187519 0-.375708-.0723288-.517686-.2163166-.279939-.2859665-.277261-.7453881.008706-1.0266667 2.005114-1.9702892 4.095951-3.8776255 6.214247-5.6664231.302039-.2578387.758112-.2230137 1.022648.0870624.257169.3060578.218326.7621309-.087062 1.0219787-2.088159 1.7660274-4.152877 3.6465753-6.131873 5.5920852-.141978.1379605-.325479.2082801-.50898.2082801zm-11.031476 12.542344c-.152694 0-.308067-.0475495-.439331-.145997-.318782-.2424353-.381735-.6964992-.139299-1.0179604 1.679634-2.2174125 3.471111-4.4080365 5.32554-6.5115982.259848-.3080669.7186-.3341857 1.023988-.0656316.30003.263866.330167.7232876.064292 1.0246575-1.82898 2.0767732-3.598356 4.2392694-5.25589 6.4305632-.144658.1881887-.360975.2859665-.5793.2859665zm-8.978143 14.1221918c-.104475 0-.20895-.0214308-.307398-.06965-.362983-.1701065-.519695-.6007306-.349589-.9630441.056926-.1185388 1.393669-2.9407001 4.228554-7.3547641.214308-.3368645.666363-.4326332 1.002558-.2169863.336864.2169863.435312.6650229.216316 1.0025571-2.775951 4.323653-4.119391 7.1585388-4.132785 7.1846575-.123897.2645358-.386423.4172299-.657656.4172299z"/><path d="m14.1839878 210.771385c-.344901 0-.6509589-.245114-.7139117-.596712-.4962557-2.737108-.9114764-5.531142-1.2302587-8.305084-.0455404-.397808.2404261-.757443.6382344-.803653.4500456-.026119.7574429.244445.8036529.638234.3147641 2.743136.7252968 5.504354 1.2168646 8.212664.0723287.39312-.1901979.771507-.5853273.843166-.0442009.006697-.0877321.011385-.1292542.011385zm4.0852359 16.181553c-.3060578 0-.5900152-.194217-.6904718-.499605-.8585693-2.627945-1.6448097-5.342952-2.3305936-8.069345-.0984475-.389102.1372907-.782222.5263927-.88067.3971385-.09175.7842313.137961.88.526393.6797565 2.693577 1.4546119 5.376438 2.3044749 7.972907.1245662.380396-.0830442.790928-.4647793.915495-.0743379.024109-.1513547.034825-.2250229.034825zm6.3515373 15.433485c-.263866 0-.5190258-.144657-.6456012-.397808-1.238965-2.451142-2.4143074-5.024171-3.4912024-7.648097-.1526941-.368341.0241096-.794947.3957991-.945632.3663318-.152694.7949467.0221.9456316.395799 1.0635008 2.588432 2.2214308 5.126636 3.4423136 7.542283.1814916.358295.0395129.794947-.3187824.974429-.1051446.054917-.2163166.079026-.3281583.079026zm8.7403958 14.213942c-.2230137 0-.4413394-.103135-.5833181-.295342-1.6709285-2.265632-3.2527854-4.610959-4.7053882-6.972359-.2096194-.340883-.1031354-.78892.2384171-.998539.3341857-.20962.7842313-.107154.9978691.238417 1.431172 2.326575 2.9909284 4.639756 4.6357382 6.871902.2377473.323471.1701065.777535-.1533638 1.013943-.1285845.095768-.2792694.141978-.4299543.141978zm10.9986606 12.537656c-.1814917 0-.3623136-.066971-.5029529-.200243-2.0004261-1.924749-3.9559817-3.971385-5.8077321-6.085662-.2645357-.30204-.2343988-.760792.0669711-1.024658.2973516-.264536.7561035-.238417 1.0246575.067641 1.8242923 2.08414 3.7510503 4.099969 5.7213395 5.993912.2886453.279269.298691.738691.0214307 1.026666-.1439878.148676-.3341857.222344-.5237138.222344zm12.9749771 10.485662c-.1392998 0-.2792694-.038843-.4038356-.122557-2.3004566-1.541674-4.5788128-3.221978-6.7721157-4.995373-.3100761-.251141-.3603044-.707884-.106484-1.019969.2511416-.312755.7098935-.358965 1.0199696-.107154 2.1578082 1.745266 4.4013394 3.398782 6.6663013 4.917017.3328463.223014.4225876.675068.1989041 1.007245-.1392998.209619-.3683409.320791-.6027397.320791zm14.6512633 7.964871c-.0944292 0-.1928767-.018082-.2846271-.056925-2.540213-1.081583-5.0891324-2.31586-7.577108-3.668006-.3515982-.192207-.4801827-.633547-.2906545-.985145.1942161-.349589.6315373-.478174.9851446-.290655 2.4464536 1.332725 4.9518417 2.544902 7.4512024 3.606393.3690107.157382.5391172.583318.384414.952329-.1178691.275251-.3870928.442009-.6683714.442009zm9.5038661 3.390076c-.7708371-.194886-1.3320548-.362983-1.8912633-.537778-.3830746-.117869-.5960426-.524383-.4768341-.908797.1185388-.379726.5377778-.583318.9094673-.476165.5505022.170777 1.1023439.338874 1.6615525.500274.3850837.111172.6054185.515678.4942465.900092-.0917503.316773-.3824048.522374-.6971689.522374z"/><path d="m124.171263 86.6465145c-.382405 0-.701187-.2973516-.725296-.6817656-.02411-.3991477.281948-.7427093.681765-.768828 2.793364-.1707763 5.576682-.3167733 8.343927-.4520548.4179.0087062.7407.2906544.760122.6904718.020091.3991476-.289985.7407002-.690472.7601218-2.758539.1359513-5.536499.2819482-8.326514.4520548-.015404 0-.030137 0-.043532 0zm-16.644992 1.3541552c-.367002 0-.681766-.2745814-.721279-.6482801-.043531-.3978082.245115-.7561035.644932-.7976255 2.771933-.298691 5.552572-.5551903 8.333881-.7775343.39446-.041522.748737.2665449.781553.6643532.032816.3991476-.266545.7487366-.664353.7822222-2.767245.222344-5.53516.4775038-8.298387.7728462-.026119.0040183-.052237.0040183-.076347.0040183zm-16.5344902 2.4076104c-.3422222 0-.6462709-.2424354-.7119026-.5900153-.0756773-.3931202.1835008-.7735159.5772907-.8478538 2.6205784-.4996043 5.4065754-.9623745 8.2742771-1.375586.4105327-.0549163.7621309.2183257.8210654.6161339.0569256.3951294-.217656.76414-.6154642.8210655-2.8462709.4085235-5.6074886.8672754-8.2093151 1.3628614-.0455403.0087063-.0917504.0133943-.1359513.0133943zm-16.2009741 4.0457229c-.308067 0-.5926941-.1968949-.6904718-.5049619-.1225571-.3824049.0870624-.7909285.4694672-.9108067 2.573029-.8210655 5.2933942-1.5905632 8.0847489-2.281035.4038356-.0997869.7842313.1399695.8779909.5290715.0984474.389102-.1399696.7822223-.5284019.8786606-2.7612176.6851142-5.4501065 1.4432268-7.9929984 2.2542466-.0743379.0234399-.1486758.0348249-.2203349.0348249zm-15.4421918 6.312694c-.2618569 0-.5176864-.143988-.6462709-.39312-.1814916-.358295-.0415221-.7949469.3147641-.9784476 2.4464535-1.2543684 5.0194825-2.43172 7.6474277-3.5025875.3623135-.145997.7902587.0267884.9456316.400487.150685.3710198-.0281278.7949467-.3998173.9456317-2.5884323 1.0527854-5.1219483 2.2127245-7.5295586 3.4490104-.1071538.052238-.2203349.079026-.3321766.079026zm-13.9822222 9.061187c-.2116286 0-.4212481-.09242-.5632268-.269223-.2538204-.312086-.2035921-.768828.1071537-1.01997 2.1624962-1.747275 4.4582649-3.407489 6.8236834-4.936438.3321766-.216317.7822223-.124567 1.0025571.215647.2189955.336194.120548.784231-.2163166 1.003226-2.3218873 1.500153-4.5761339 3.130229-6.697108 4.844688-.1352816.109163-.2966819.16207-.4567428.16207zm-11.7828919 11.792938c-.1614003 0-.3228006-.052238-.4560731-.1614-.3120852-.253151-.3603044-.709894-.1071537-1.01997 1.7827701-2.197321 3.6760426-4.303562 5.6315981-6.262466.2832877-.284627.7427093-.284627 1.025997 0 .2819483.281949.2846271.74271 0 1.026667-1.917382 1.92207-3.7785084 3.990137-5.5304718 6.149285-.1439879.176134-.3536073.267884-.5638965.267884zm-9.1757078 13.919939c-.1165297 0-.2323897-.026788-.3415525-.085723-.3536073-.188189-.4868798-.626849-.298691-.980457 1.3300456-2.49936 2.7739421-4.933089 4.2921765-7.237564.2203349-.331507.6683714-.419239 1.0045662-.204932.3341857.218326.4259361.668372.2056013 1.004566-1.4921157 2.265632-2.9119026 4.661188-4.2225267 7.119026-.1312633.245114-.3824049.385084-.6395738.385084zm-6.5343683 15.347093c-.0763471 0-.1526941-.010715-.227032-.037504-.3817352-.123896-.5873364-.534429-.460761-.914825.8866971-2.675495 1.882557-5.323531 2.9621309-7.868432.157382-.367002.5786301-.541796.9523287-.384414.3690107.157382.5391172.583318.384414.952329-1.0641704 2.507397-2.0466362 5.11793-2.9226179 7.754581-.1004567.306058-.384414.498265-.6884627.498265zm-4.0169255 16.199635c-.5176864-.079026-.7815525-.452725-.7145814-.847854.4761644-2.777961 1.0527854-5.545875 1.7171385-8.226058.0937595-.386423.4741553-.638235.8779909-.529072.389102.096439.6248402.489559.5284018.877991-.652968 2.645358-1.2228919 5.378448-1.6943683 8.121583-.0596043.354277-.3670016.60341-.7145815.60341z"/></g><g transform="translate(156 277)"><path d="m38.085311 46.6764658s3.9100931-4.7655617 1.6447561-14.186022c-2.2664219-9.4199178-8.5281041-7.4513096-8.5281041-7.4513096s-3.8336055-9.3504821-4.9472876-14.3080767c-1.1136822-4.95759449-4.2626959-10.94912873-8.4038795-10.14356709-4.1422685.80610411-4.7227068 7.4241863-3.4842575 12.59822469 1.2379068 5.1745808 3.9654246 12.6964109 3.9654246 12.6964109s-4.6787671-4.0500493-6.4412383-3.9149753c-1.7613863.1356164-5.36173154 1.5948493-6.3110466 3.8124493-.94985754 2.2170575-1.28021918 4.4547288-1.28021918 4.4547288s-3.50758356 1.8986301-3.61878904 5.4311671 2.34182465 7.2842301 11.66572602 12.9519123c0 0 1.4738795 4.7221644 6.5958411 5.3904822l1.25039 5.5896438s6.1949525-.3170315 11.009336-2.0339356c4.816011-1.7174465 8.5281041-3.5557082 8.5281041-3.5557082z" fill="#fff"/><g fill="#00343d"><path d="m18.6460507 27.1851288c-.2245808 0-.4388548-.1296493-.5359562-.3488055-3.8341479-8.5774685-6.5784822-19.95514522-3.5455561-24.65940823.9232767-1.43536438 2.2962575-2.16823562 4.0782575-2.17691507 5.2282849 0 7.1410192 6.80197808 9.1655014 14.0048384 1.0952383 3.8943616 2.2279068 7.9232548 3.8976164 10.7332274.166537.2793698.0743178.6401095-.2034246.8050191-.2739453.1697918-.6368548.0737754-.8050192-.2034246-1.7516219-2.9445041-2.9054466-7.0471726-4.0218411-11.0163945-1.9002576-6.76075073-3.6963617-13.14828498-8.0029973-13.14828498-1.401189.00705206-2.4150575.54300822-3.1208055 1.63878904-2.3570137 3.65730411-.8299726 13.55838904 3.6301809 23.54464114.1329041.2956438 0 .6428219-.2972713.7751835-.0775726.0352603-.1589424.0515343-.2386849.0515343"/><path d="m38.9610005 53.6351884-1.4441936-6.8052048c-.0623836-.2316329.0227835-.4773699.2137315-.6227507 1.4104109-1.0670302 3.6611013-12.8363671-.7871178-19.0508548-2.2935452-3.1972932-14.9015343-.9059178-22.0517754 3.1159233-3.1034466 1.7451123-4.5664767 3.4820876-4.0202137 4.7666465.8142411 1.9040548 2.313074 3.2151946 4.4574411 3.8943617 4.0392 1.2861863 9.9596712.0781151 15.0707836-3.0752384.2712329-.1714191.6373972-.086252.8093589.1931178.1697918.2761151.0829972.6368548-.1931178.8088165-5.3910247 3.3247726-11.6917644 4.5805808-16.0428822 3.1934959-2.4503178-.7762685-4.2409973-2.3515891-5.18054796-4.554-.58369315-1.362674-.27069041-3.5547781 4.52253696-6.2513754 7.1974356-4.0484219 20.6321425-6.9093863 23.5836987-2.7741698 4.5702739 6.383737 2.7123287 17.9463945.838652 20.3652493l1.359569 6.4884049c.0851672.3135452-.1008986.6373972-.4139013.7220219-.0509918.0124767-.1025261.0195287-.1540603.0195287-.2582137 0-.4952712-.1719616-.5679617-.4339726z"/><path d="m25.0335849 46.3916712c-.7833205 0-1.599189-.0889644-2.4313315-.269063-3.1067013-.6759123-6.3039945-2.3412822-10.065452-5.2413041-2.2843233-1.7603014-4.35600002-3.7842411-6.15915618-6.0116055-1.12181918-1.3892548-2.59732603-3.5249424-2.45791233-6.0251671.03905753-.7073753.21047671-1.4277699.51100274-2.1373151 1.10120548-2.6005808 3.82926575-5.3275561 6.75207127-5.3275561 1.8438411.0406849 3.0915123 1.0171233 4.2963287 1.9604712l.3786411.2956438c1.5623014 1.2026466 2.6998521 2.1161589 4.0625261 3.2537096.2495342.2083069.2815397.578811.0743178.8278028-.2088494.2533315-.5804384.2815397-.8283452.0743178-1.3480274-1.1267014-2.4768987-2.0309918-4.0267233-3.2255014l-.3840658-.300526c-1.1039178-.8636055-2.1443671-1.6789315-3.4945644-1.7093096-2.40800545 0-4.78237805 2.3266356-5.74688216 4.6077041-.24790685.5853206-.38949041 1.172811-.41932603 1.7461973-.09059178 1.5959342.60864658 3.2537096 2.19590137 5.2196054 1.74619726 2.1568439 3.75223562 4.1156877 5.96441092 5.8212 3.6182466 2.7899014 6.6669042 4.3863781 9.5967617 5.0216055 1.7391452.3753863 3.3849863.3168 4.7563397-.1773863.7079178-.2544164 1.6897808-.7534849 2.3499617-1.6805589 1.298663-1.8210575.3661643-3.8927342-.3064932-4.966274l-.1540603-.2413972c-.0949315-.1518904-.1410411-.222411-.3216822-.467063-.1931178-.2614685-.1377863-.6298028.1220548-.8223781.2636384-.1893206.6298028-.1383288.8229206.1220548.2088493.2809972.2598411.3629096.3710466.5392109l.1524328.2376c1.4310247 2.2913754 1.5270411 4.5187398.2706904 6.2790411-.6601808.9308713-1.6664548 1.6583178-2.9087013 2.1058521-.9075452.3276493-1.9111069.490389-2.9727124.490389"/><path d="m21.7711959 52.0251781c-.3732164 0-.7540274-.0179014-1.1397205-.0531617-3.1652877-.2967287-6.5394247-1.5655561-10.6214795-3.9952602-2.48449315-1.4760494-4.78454794-3.2341809-6.83669589-5.2299124-1.27967671-1.2406191-2.99929315-3.1815616-3.16040548-5.6834137-.04773698-.7100876.03743014-1.4440438.24953425-2.1834246.49038904-1.7076822 1.58020274-3.9882082 3.97573151-5.1734959.28859178-.1383288.64282192-.0271233.78766027.2668931.14321096.2902192.02441096.6422795-.26743561.7876603-2.01200548.9943397-2.94016439 2.9651178-3.36708494 4.4427945-.17304657.6086466-.24410959 1.2102411-.20722191 1.783085.10469589 1.5964767.99596712 3.158778 2.80780274 4.917452 1.98759452 1.9300932 4.2133315 3.6345206 6.61970956 5.061748 3.9263671 2.3374849 7.1448165 3.5553205 10.129463 3.8346904 1.7711507.1697918 3.4007178-.0905918 4.7031781-.7486028.6704877-.3363287 1.5856274-.9482301 2.130263-1.9496219.5419233-.9943397.6211233-1.7217863.2918466-2.6808657-.1063233-.3081206.0580438-.6422795.364537-.7464329.3043233-.1008986.6439068.054789.7469753.364537.4350576 1.2650301.3233096 2.3494192-.3699616 3.6252986-.5468055 1.0035616-1.458148 1.8476384-2.6363836 2.4378411-1.2086137.6086466-2.6456054.9221918-4.2003123.9221918"/><path d="m19.2380341 59.3249743-1.1648272-4.681314c-2.8153973-.7995945-4.6538137-2.7833918-6.6658192-5.6915507-.1855233-.2674356-.1182575-.6336.1491781-.8180384.2668931-.1860657.6336-.1166301.8169534.1486356 1.9414849 2.8050905 3.6768329 4.6733425 6.3365425 5.3134521.2191561.0531616.3889479.2283781.4372274.4497041l1.2407724 5.0344593c.0678082.3168-.133989.6298027-.4529589.6970685-.0406849.0092219-.0808274.0124767-.1220548.0124767-.2723178 0-.5164274-.1893206-.5750137-.4648932z"/></g></g><path d="m169.022378 334.748668c-.083312-.273106.07314-.562953.350684-.646176.27706-.085137.569135.072222.654384.346763.597228 1.954312 7.592987 2.236984 16.668146-.472555 7.046133-2.103061 13.12062-5.44347 14.1315-7.769416.150155-.346285.164202-.631827.041172-.871931-1.038006-2.034186-3.887892-1.669084-6.485085-.984645-.278029.087528-.567198-.090398-.643244-.366374-.074109-.275976.09203-.560082.371512-.634696 4.327363-1.146472 6.603756-.608554 7.695526 1.519378.183092.360156.328403.954676-.014047 1.74721-1.139238 2.621054-7.360973 6.134127-14.794118 8.352457-4.153958 1.240218-8.593211 2.031317-12.032239 2.031317-3.147438 0-5.457399-.663395-5.944191-2.251332z" fill="#00343d"/></g></svg>