<?xml version="1.0" encoding="UTF-8"?>
<svg width="167px" height="125px" viewBox="0 0 167 125" version="1.1" xmlns="http://www.w3.org/2000/svg" xmlns:xlink="http://www.w3.org/1999/xlink">
    <!-- Generator: Sketch 63.1 (92452) - https://sketch.com -->
    <title>“ copy 2</title>
    <desc>Created with Sketch.</desc>
    <g id="Home" stroke="none" stroke-width="1" fill="none" fill-rule="evenodd" opacity="0.800000012">
        <g id="Home-NEW-" transform="translate(-536.000000, -4374.000000)" fill="#01181C">
            <g id="card/quote" transform="translate(526.000000, 4361.000000)">
                <path d="M89,100.5 C89,110.916719 85.4150524,119.770797 78.2450495,127.0625 C71.0750467,134.354203 62.2756297,138 51.8465347,138 C39.3316206,138 29.2285863,133.638064 21.5371287,124.914063 C13.8456711,116.190061 10,104.666738 10,90.34375 C10,76.2811797 11.7598834,64.3021328 15.279703,54.40625 C18.7995225,44.5103672 23.8184493,36.5677383 30.3366337,30.578125 C36.8548181,24.5885117 44.8720646,20.1614727 54.3886139,17.296875 C63.9051631,14.4322773 74.7903678,13 87.0445545,13 L87.0445545,36.4375 C79.2227332,36.4375 72.5742848,37.3489492 67.0990099,39.171875 C61.623735,40.9948008 57.1914361,43.3385273 53.8019802,46.203125 C50.1517969,49.0677227 47.4142005,52.2577949 45.5891089,55.7734375 C43.7640173,59.2890801 42.5907617,62.8697734 42.0693069,66.515625 C42.5907617,65.9947891 43.8291981,65.4088574 45.7846535,64.7578125 C47.7401088,64.1067676 49.7607156,63.78125 51.8465347,63.78125 C63.3185392,63.78125 72.3786796,67.3619434 79.0272277,74.5234375 C85.6757758,81.6849316 89,90.3436992 89,100.5 Z M177,100.5 C177,110.916719 173.415052,119.770797 166.24505,127.0625 C159.075047,134.354203 150.27563,138 139.846535,138 C127.331621,138 117.228586,133.638064 109.537129,124.914063 C101.845671,116.190061 98,104.666738 98,90.34375 C98,76.2811797 99.6947025,64.3021328 103.084158,54.40625 C106.473614,44.5103672 111.492541,36.5677383 118.141089,30.578125 C124.789637,24.5885117 132.872065,20.1614727 142.388614,17.296875 C151.905163,14.4322773 162.790368,13 175.044554,13 L175.044554,36.4375 C167.222733,36.4375 160.574285,37.3489492 155.09901,39.171875 C149.623735,40.9948008 145.061074,43.3385273 141.410891,46.203125 C137.760708,49.0677227 135.088292,52.2577949 133.393564,55.7734375 C131.698836,59.2890801 130.590762,62.8697734 130.069307,66.515625 C130.590762,65.9947891 131.829198,65.4088574 133.784653,64.7578125 C135.740109,64.1067676 137.760716,63.78125 139.846535,63.78125 C151.318539,63.78125 160.37868,67.3619434 167.027228,74.5234375 C173.675776,81.6849316 177,90.3436992 177,100.5 Z" id="“-copy-2" style="mix-blend-mode: soft-light;"></path>
            </g>
        </g>
    </g>
</svg>