<svg height="1268" viewBox="0 0 1268 1268" width="1268" xmlns="http://www.w3.org/2000/svg"><g fill="#00343d" fill-rule="evenodd" opacity=".3"><path d="m1180.52078 317.20815c.58275 1.00485 1.30095 1.23165 1.7073.5544.4095-.67725.3339-1.9908-.24885-2.9925-27.21285-46.56645-60.56505-89.95455-99.7038-129.0996-119.706305-119.72835-278.901005-185.67045-448.245005-185.67045-154.27755 0-300.10365 54.7281-415.35585 154.9359-.8757.76545-1.33875 1.94355-1.13085 2.66175.2079.7245 1.01115.7056 1.88685-.0567 111.0501-96.75225 256.09185-155.4399 414.59985-155.4399 233.01495 0 436.971155 126.8379 546.490355 315.1071" opacity=".05"/><path d="m143.2557 1031.55853c-88.2126-108.643495-141.1515-247.016695-141.1515-397.529995 0-181.0746 76.57965-344.56905 199.02015-459.89055.8442-.79695.9324-1.58445.22365-1.84905s-1.93725.0945-2.78145.89145c-4.34385 4.1013-8.65305 8.24985-12.8961 12.48975-119.72835 119.7315-185.67045 278.964-185.67045 448.3584 0 147.2373 49.8519 286.7886 141.5547 399.397945.73395.90832 1.65375 1.16235 2.12625.64575s.30555-1.6128-.42525-2.5137" opacity=".05"/><path d="m1191.62894 337.16025c47.31615 88.5591 74.18565 189.63 74.18565 296.8686 0 94.16295-20.7459 183.56625-57.84975 263.92275-.48825 1.0584-.7875 2.40975-.7308 3.0366.0378.37485.0567.75285.0567 1.134 0 4.18635-1.98765 7.9191-5.0841 10.3446-.91035.7182-2.16405 2.01285-2.6838 3.05235-10.00125 20.0151-21.01365 39.438-33.00885 58.1805-.6237.9765-.75915 2.31525-.4221 3.0555.33705.74655 1.03635.59535 1.6632-.38115 65.1861-101.2032 100.16055-219.07305 100.16055-342.34515 0-105.1785-25.41735-206.4384-73.34145-296.7552-.54495-1.03005-1.2285-1.8333-1.52775-1.81755-.1701.0063-.3528.0126-.53235.0126-.31815 0-.63-.01575-.94185-.045693-.51975-.039357-.4914.713493.0567 1.737243" opacity=".05"/><path d="m160.0578 1051.40574c-.7686-.8694-1.827-1.23165-2.4066-.8631-.5859.3591-.4725 1.29465.2961 2.16405 8.89875 10.09575 18.12195 19.96785 27.72315 29.5722 1.28835 1.2852 2.59245 2.5389 3.8934 3.7989.83475.80955 2.4507 1.5498 3.5595 1.9026 3.1185.9954 5.59755 3.37365 6.70635 6.4197.3969 1.0899 1.20015 2.68065 2.0475 3.47445 117.7155 109.8027 270.2826 170.04015 432.15165 170.04015 169.34715 0 328.5387-65.9295 448.245-185.6358 3.19095-3.1878 6.33465-6.39765 9.4374-9.64215.80325-.83475.80955-1.5498.03465-1.71675-.7749-.1638-2.02545.27405-2.83185 1.11195-115.0002 119.3913-276.41565 193.7817-454.8852 193.7817-188.56845 0-358.0857-83.02455-473.97105-214.4079"/><path d="m1153.57063 993.07845c-15.1893 21.91455-31.71735 42.84315-49.48965 62.63145-.7749.8631-1.1151 2.13885-.882 2.88855.2331.756.94815.6993 1.7325-.16065 18.7425-20.7522 35.9478-42.5628 51.6159-65.2617.65835-.95445.96705-1.70415.68985-1.6695-.1701.0252-.33075.04095-.50715.04095-.33705 0-.6615-.0189-.9891-.0567-.5418-.05355-1.50885.63-2.17035 1.5876"/><path d="m634.028535 1208.28393c-316.7136 0-574.3836-257.6133-574.3836-574.2576 0-316.7136 257.67-574.3836 574.3836-574.3836 178.0317 0 337.3839 81.46845 442.798655 209.0718.7371.8946 1.6002 1.11825 2.00655.54495.40635-.57015.21105-1.7073-.5292-2.59875-11.5353-13.9104-23.7699-27.3609-36.70695-40.29795-108.845105-108.864-253.590755-168.8211-407.569055-168.8211-154.0224 0-298.79955 59.9571-407.66355 168.8211-108.864 108.86715-168.8211 253.6443-168.8211 407.66355 0 153.98145 59.9571 298.72395 168.8211 407.5659 7.4403 7.44345 15.06645 14.6223 22.8375 21.5964.8631.7749 2.30265 1.86165 3.0996 2.5641.8001.70875 2.0475 2.0034 2.9232 2.76885 104.97375 91.7406 238.01715 141.86025 378.80325 141.86025 123.31935 0 240.69465-38.4678 338.4675-109.6956.9387-.6804 2.268-1.99395 3.1563-2.7405.33705-.28665.6867-.5481 1.0584-.7875.9765-.63 2.6271-1.5246 3.5469-2.2176 21.479855-16.20045 41.983205-33.99165 61.339955-53.3484 39.1104-39.1104 71.8767-82.87965 97.84845-130.0257.55755-1.01745.87885-2.35305.79695-2.98305-.04725-.378-.07875-.76545-.07875-1.15605 0-.65835.0693-1.2978.19215-1.91835.20475-1.04265.1134-1.0143-.4347.00945-97.03575 180.0792-287.390255 302.7654-505.893155 302.7654z" fill-opacity=".1"/><path d="m1143.22541 900.255195c.46305-.44415.97335-.8442 1.51515-1.1907.9765-.6237 2.30895-1.7766 2.835-2.81295 4.5108-8.8011 8.82-17.70615 12.8583-26.72145.4725-1.0584.36225-2.21445-.1953-2.65545-.55755-.43155-1.34505.0189-1.8207 1.0773-4.8636 10.86435-10.0611 21.5523-15.57045 32.04495-.53865 1.0269-.4662 1.06155.378.2583"/><g fill-opacity=".1"><path d="m1188.70668 485.23797c12.74175 47.4768 19.57725 97.3476 19.57725 148.79025 0 73.99035-14.0805 144.75195-39.6774 209.76165-.4284 1.0773-.2142 1.9467.4662 2.0223s1.57185-.67725 1.98765-1.7577c25.80165-66.0429 39.3246-136.99035 39.3246-210.02625 0-5.03685-.0882-10.0611-.2205-15.07905-.0252-1.1592-.5796-2.8917-1.01115-3.969-.5166-1.28835-.8064-2.69325-.8064-4.16745 0-1.1844.18585-2.331.52605-3.40515.35595-1.10565.7749-2.8728.7182-4.032-2.20815-42.39585-8.9964-83.93175-20.097-124.05645-.31185-1.11825-.53235-1.72305-.51345-1.3482.0126.2268.02205.4536.02205.68355 0 .8694-.0945 1.71675-.2583 2.53575-.2331 1.13715-.34335 2.92635-.0378 4.04775"/><path d="m1185.43351 469.715715c.4284.45675.8253.94185 1.1844 1.4553.66465.9513.80325.9072.4725-.2079-1.9656-6.7158-4.0509-13.3938-6.2622-20.02455-.36225-1.10565-1.1529-1.79235-1.77345-1.60965-.62055.17955-.8316 1.16235-.46305 2.26485 1.62855 4.86675 3.17835 9.7713 4.67775 14.6979.3402 1.1088 1.37025 2.5767 2.16405 3.42405"/><path d="m1159.39688 402.214995c3.3642 7.6104 6.56775 15.30585 9.61065 23.0832.42525 1.08045 1.2411 1.6947 1.86795 1.43325.62055-.2583.80955-1.2915.3906-2.37195-2.89485-7.4277-5.94405-14.79555-9.1539-22.09725-.46305-1.06155-1.10565-1.89945-1.42695-1.8837-.189.00945-.3843.01575-.57645.01575-.2646 0-.5229-.00945-.78435-.0252-.43155-.0315-.40005.7875.07245 1.8459"/><path d="m1149.95916 379.271655c.48195-.5733.50715-1.83015-.0126-2.86965-8.757-17.50455-18.42435-34.58385-28.98315-51.17805-.6237-.9765-1.9341-2.2743-2.7846-3.0681-1.4364-1.34505-2.54205-3.02085-3.19725-4.90455-.3843-1.0962-1.03635-2.8161-1.68525-3.78-6.4449-9.59805-13.2111-19.01025-20.2608-28.25235-.7056-.92295-1.77345-1.3734-2.4192-1.09935-.6489.27405-.63 1.1655.07875 2.08845 21.93975 28.75005 41.2272 59.6232 57.50955 92.26035.5166 1.03635 1.2726 1.37655 1.75455.80325"/></g><path d="m183.1536 896.87115c-45.22455-77.24115-71.1963-167.06025-71.1963-262.8423 0-143.49825 58.20255-273.64995 152.2269-368.1153.819-.82215 1.09305-1.85535.6615-2.3499-.4347-.4977-.9072-.7749-1.1151-.5733-.12285.12285-.252.24255-.37485.3654-46.4877 46.49085-83.1474 100.19205-108.9774 158.58045-.46935 1.0584-1.03635 2.85075-1.4742 3.92805-.063.1638-.1323.32445-.20475.48195-.4788 1.0584-1.38915 2.7027-1.84275 3.77055-26.8695 63.6741-41.0004 132.70005-41.0004 203.9121 0 94.5315 24.8787 185.2263 71.49555 264.6378.5859 1.0017 1.4238 1.3671 1.92465.87255.4977-.4977.46305-1.6695-.12285-2.66805" opacity=".15"/><path d="m1094.58184 387.40023c-.05355.51345.3087 1.75455.85365 2.7783 27.23805 51.36075 46.14435 107.77725 54.9297 167.4477.17325 1.1466 1.03005 2.6901 1.73565 3.61305.07875.09765.1575.19845.2268.3024.6741.94185.9072.89145.74655-.25515-8.5995-62.37-28.2366-122.08455-57.9411-176.83785-.5544-1.01745-1.06785-1.83645-1.1403-1.820923-.0756.012823.22995.828673.4473 1.893373.12915.63.1953 1.2789.1953 1.9467 0 .315-.0189.62685-.05355.9324" opacity=".15"/><path d="m284.85639 246.233295c92.56275-83.4309 215.0442-134.27505 349.17435-134.27505 84.02625 0 163.46925 19.9773 233.856 55.41165 1.03635.5229 2.54205.58905 3.4146.28035.8694-.3087.7749-.87885-.26145-1.4049-72.5445-36.85815-153.26325-56.38815-237.00915-56.38815-130.94235 0-254.5326 47.6658-350.95725 134.7759-.8631.7749-1.11825 1.72305-.62685 2.1672.49455.441 1.54665.2079 2.40975-.567"/><path d="m1083.99974 367.428285c.3717-.71505.28665-2.04435-.31185-3.03975-21.8673-36.34155-48.31785-70.26705-79.07445-101.0331-13.311905-13.30875-27.231755-25.78905-41.658755-37.46295-.90405-.7308-1.9215-.85365-2.32785-.3276-.4095.52605-.05355 1.4994.8505 2.2302 48.021755 38.79855 89.037905 85.92255 120.862355 139.1607.59535.99855 1.2852 1.1844 1.66005.4725" opacity=".15"/><path d="m1058.09855 938.00889c-94.821305 131.90625-249.580805 217.9737-424.068755 217.9737-97.0767 0-188.0361-26.6553-265.98285-72.98865-.99855-.58905-1.66635-.4788-1.59123.27405.05718.45045.08238.9072.08238 1.37025 0 .0504-.00315.1071-.0063.1638-.00945.0819.79695.63315 1.7955 1.2222 79.6698 46.9854 170.7489 72.0594 265.7025 72.0594 140.0049 0 271.61505-54.50445 370.584905-153.47115 20.8026-20.8089 39.6333-43.06365 56.41335-66.52485.6741-.94185.945-1.68525.60795-1.66635-.19845.0126-.4032.01575-.6048.01575-.28665 0-.5733-.0126-.8568-.039033-.46935-.033417-1.3986.665883-2.07585 1.610883"/><path d="m196.77042 921.12678c-.67725.2079-.72135 1.10565-.07875 2.0727 19.2465 28.9737 41.5044 56.25585 66.6666 81.41175 25.39215 25.389 52.9515 47.82015 82.2339 67.1832.96705.63945 2.3751.8442 3.17835.56385.8064-.2835.693-.9387-.28035-1.575-59.23575-38.84265-110.1177-89.39385-149.35725-148.3398-.6426-.9702-1.6884-1.5246-2.3625-1.3167"/><path d="m1154.18867 677.014065c-.09135 1.15605.30554 2.1546.87885 2.2806.5796.126 1.1214-.65835 1.21275-1.8144 1.1781-14.3829 1.8018-28.8666 1.8018-43.4511 0-21.32865-1.2663-42.4557-3.75795-63.30555-.1386-1.1529-.3402-1.1403-.68985-.03465-.07245.2268-.15435.4536-.23941.6741-.42524 1.08045-.85994 2.79405-.73394 3.94695 2.17035 19.278 3.3201 38.8647 3.3201 58.71915 0 14.47425-.62685 28.8036-1.79235 42.9849" opacity=".15"/><path d="m1151.25413 704.287395c-10.5147 77.7798-38.2347 150.16365-79.17525 213.21405-.63315.97335-.8001 2.32155-.47565 3.0618.32445.74655 1.01745.59535 1.6506-.37485 42.5187-64.98765 69.8544-138.43305 80.16435-215.91675.1512-1.14975 0-2.05065-.34335-2.035103-.20475.012803-.4158.015953-.62055.015953-.1575 0-.31185-.00315-.4662-.00945-.25515-.01575-.5796.89775-.73395 2.04435" opacity=".15"/><path d="m941.886855 211.203405c.4221-.5292.0504-1.4742-.8883-2.1546-16.9029-12.26925-34.4547-23.4549-52.55775-33.5349-1.0143-.56385-1.54665-.32445-1.33245.5733.22365.8946 1.1025 2.10105 2.11365 2.66805 17.39115 9.79335 34.1649 20.5506 50.2551 32.2056.9387.6804 1.9908.7686 2.40975.24255"/><path d="m883.8396 230.16798c-.34335-.44415-.65835-.9135-.93555-1.40175-.57015-1.01115-1.6632-2.40345-2.65545-3.0051-35.96985-21.7854-74.5605-38.619-114.9309-50.11965-1.1151-.31815-1.701-.01575-1.40805.7182.2961.73395 1.33875 1.6191 2.4507 1.94355 41.6871 12.13065 81.0117 29.862 117.1296 52.28685.98595.61425 1.0647.49455.34965-.4221"/><path d="m289.90899 962.10135c-.6552.2646-.57015 1.06785.2331 1.90575 2.2554 2.3499 4.53915 4.6746 6.84495 6.9804 17.262 17.262 35.6328 33.00885 54.92655 47.22165.92925.693 2.63025 1.4112 3.69495 1.8648 1.3797.5985 2.59875 1.48995 3.58155 2.59875.7686.86625 1.99395 2.23965 2.9484 2.90115 21.30975 14.8554 43.69365 27.8649 66.95325 38.9529 1.04895.4977 2.09475.39375 2.4003-.20475s-.24885-1.45845-1.2978-1.95615c-51.72615-24.70545-98.3178-58.4829-137.6739-99.29115-.8064-.8379-1.95615-1.2348-2.61135-.97335"/><path d="m428.11083 206.58897c62.3196-30.1455 132.174-47.07675 205.91865-47.07675 13.1733 0 26.208.5733 39.11355 1.63485 1.1529.0945 2.93265-.26145 4.04775-.5859.9702-.2835 1.9908-.441 3.05865-.441 1.8648 0 3.6036.46305 5.1471 1.26 1.03005.53235 2.70585 1.23165 3.85875 1.3671 18.6795 2.1735 37.02825 5.44005 54.98325 9.7272 1.134.2709 2.47275.02205 3.07755-.4725s.2394-1.04265-.88515-1.31355c-36.37305-8.757-74.03445-13.27725-112.40145-13.27725-73.2249 0-143.90775 16.4241-207.8874 47.46735-1.0458.50715-1.4049 1.25055-.85995 1.72305.5418.47565 1.7829.4914 2.8287-.0126"/><path d="m404.519535 217.426545c-.09135-.7119-.9198-.84735-1.9341-.28035-38.25675 21.3003-73.78875 48.0312-105.6006 79.8399-88.29765 88.3008-137.6424 205.1847-139.482395 329.8176-.015355 1.1592.441395 1.97505 1.020995 1.8711.58275-.1071 1.07415-1.0899 1.0899-2.2491 2.7594-174.60765 100.2834-326.5983 243.30285-406.6965 1.0143-.567 1.6947-1.59075 1.60335-2.30265" opacity=".2"/><path d="m873.22662 1045.00746c.1197.70875.9324.819 1.9341.22995 23.9463-14.0931 46.7775-30.3408 68.21325-48.68325.87885-.756 1.1151-1.6443.56385-2.0412s-1.6758-.14805-2.5578.60165c-20.7522 17.6904-43.0416 33.6168-66.63825 47.565-.99855.58905-1.63485 1.62225-1.51515 2.32785"/><path d="m158.930415 654.705765c-.58905-.07875-1.0206.7497-.9639 1.91205 5.0337 108.60255 46.305 210.57435 118.00845 291.9483.7686.8694 1.56555 1.0143 1.86165.36855.29925-.64575.00315-1.8333-.75915-2.7027-68.45265-78.12945-111.70845-178.8255-116.9847-289.3212-.05355-1.15605-.57645-2.1231-1.16235-2.205" opacity=".2"/><path d="m854.923545 1053.7654c-18.92205 9.99495-38.5875 18.75195-58.905 26.1576-1.0899.39375-1.72935 1.1844-1.49625 1.7955.2331.60795 1.2474.80955 2.3373.41265 20.61675-7.4718 40.6791-16.38315 60.07365-26.67105 1.02375-.54495 1.3482-1.2978.7938-1.764-.55755-.46935-1.7766-.4725-2.8035.0693"/><path d="m455.877765 1074.97845c-.24885.6048.378 1.43325 1.4553 1.86165 45.82305 18.26055 94.55355 29.31705 144.79605 32.61825 1.1592.07875 2.09475-.34335 2.1546-.9261.0567-.5796-.7875-1.1025-1.94355-1.18125-50.6016-3.35475-99.0549-14.6664-144.1188-32.7033-1.08045-.43155-2.0979-.2772-2.3436.33075"/><path d="m630.04599 1108.39207c-1.16235-.02205-2.0664.24885-2.047791.6111.012891.2205.019191.4347.019191.6552 0 .1323-.00315.2709-.00945.4032-.0126.22365.9135.41265 2.0727.43155 1.3167.0252 2.63025.0441 3.9501.0441 47.56815 0 94.06845-6.9363 138.35745-20.30175 1.11195-.33075 1.80495-1.08045 1.62855-1.69155-.17955-.6048-1.16235-.83475-2.27745-.4977-43.596 13.2489-89.83485 20.38995-137.70855 20.38995-1.33245 0-2.6586-.02205-3.98475-.0441"/><path d="m890.49933 234.999135c91.35 58.94595 161.24535 148.39965 195.2055 253.83645.35595 1.10565 1.2285 2.0664 1.9467 2.2239.7119.15435.99225-.5544.64575-1.66005-22.7619-71.82315-62.5275-137.6235-117.30285-192.41145-23.11785-23.121-48.2076-43.54245-74.8629-61.16985-.97335-.63945-2.0286-1.1277-2.36565-1.1088-.19845.00945-.4032.01575-.60795.01575-.82845 0-1.638-.0882-2.4192-.252-1.13715-.23625-1.21905-.1008-.2394.52605" opacity=".2"/><path d="m1109.42433 629.630505c.5859-.1197 1.04895-1.1214 1.0332-2.28375-.30555-22.39335-2.142-44.53155-5.4684-66.30435-.17325-1.14975-.82845-2.0979-1.449-2.18295-.6174-.0882-.96705.7182-.7812 1.8648 3.40515 21.90195 5.30775 44.29215 5.6007 67.06665.01575 1.1592.4851 1.96245 1.0647 1.8396" opacity=".2"/><path d="m1108.97231 655.66557c-.58275-.14805-1.0836.63-1.134 1.7892-6.08265 124.3872-60.2721 236.34135-144.339305 317.5893-.83475.8064-1.18125 1.8711-.82215 2.43495.3528.5607 1.26945.3969 2.10735-.4095 2.08215-2.00655 4.15485-4.02885 6.20865-6.0795 34.605905-34.6059 63.201605-73.6218 85.327205-115.75305.53865-1.03005 1.17495-2.78775 1.6632-3.83985.14175-.31815.3024-.6237.48195-.92295.58275-1.0017 1.64745-2.54835 2.1672-3.5847 29.15325-58.3065 46.0278-122.346 49.30065-188.8992.05355-1.1592-.38115-2.17665-.96075-2.3247" opacity=".2"/><path d="m1093.36059 515.23227c1.70415 6.58035 3.276 13.21425 4.6998 19.90485.24255 1.134.8568 1.764 1.4112 1.46475.55755-.29925.8442-1.4175.60165-2.5515-1.4679-6.90795-3.087-13.76865-4.85415-20.5884-.29295-1.1214-.9009-1.5876-1.41435-1.1025-.51345.48825-.73395 1.7514-.44415 2.8728" opacity=".2"/><path d="m979.91145 374.637375c.9639.189 1.14345-.2646.44415-1.1907-12.13065-16.06815-25.4457-31.4055-39.9294-45.8892-48.7179-48.72735-107.00865-84.39165-170.62605-105.30135-1.1025-.3591-1.575-.0567-1.1781.7434.4032.8001 1.5183 1.7892 2.61765 2.15775 82.467 27.7578 153.85545 79.81155 205.632 147.6279.7056.92295 2.07585 1.66635 3.03975 1.8522" opacity=".25"/><path d="m280.73745 386.17614c-.0252-.21735-.0441-.43785-.0441-.6615 0-.62685.063-1.2348.17955-1.827.1953-.9954-.0315-.9954-.7056-.0504-9.25155 13.0284-17.7408 26.50095-25.44255 40.3704-.567 1.0143-.504 2.00025.09765 2.27115.60165.27405 1.50255-.26145 2.06955-1.2726 6.9804-12.54645 14.5719-24.70545 22.7304-36.44865.6615-.9513 1.1592-2.01915 1.1151-2.3814" opacity=".25"/><path d="m278.95329 880.533675c-.4284.5481-.2835 1.72305.38745 2.6712 14.2695 20.2167 30.36285 39.3624 48.2202 57.21975 34.04835 34.04205 72.78075 61.692755 114.7293 82.407155 1.0395.5166 2.03175.4158 2.2869-.19215.25515-.6048-.3213-1.47735-1.36395-1.99395-65.079-32.237105-120.897-80.422655-162.33525-139.415855-.6678-.9513-1.4994-1.2474-1.92465-.69615"/><path d="m221.21505 763.18074c-.8127-.4914-1.1151-.1134-.7686.99225 10.4769 33.41205 25.00785 65.4003 43.3377 95.35995.60795.9891 1.638 1.60335 2.3184 1.449.6804-.16065.74655-1.0206.1386-2.01285-17.7786-28.94535-32.2371-60.1272-42.83685-93.03525-.35595-1.10565-1.3734-2.26485-2.18925-2.7531"/><path d="m215.72712 524.109915c-.43785-.7623-.93555-.51975-1.2285.6048-2.2302 8.6247-4.19895 17.325-5.89365 26.1072-.2205 1.1403.07245 2.53575.56385 3.18465.49455.6489.9891.30555 1.20645-.83475 1.64745-8.6625 3.5469-17.2368 5.70465-25.704.28665-1.12455.08505-2.5956-.3528-3.3579" opacity=".25"/><path d="m203.46417 609.16149c.7119-12.4425 1.96245-24.74325 3.7107-36.88965.16695-1.14975-.18585-1.638-.85365-1.1781-.67095.4599-1.38915 1.6884-1.5498 2.83815-1.5057 10.9368-2.5956 21.9744-3.276 33.0876-.0693 1.1592.38115 2.52315.9261 3.11535.5481.58905.9765.18585 1.04265-.97335" opacity=".25"/><path d="m501.800355 1044.46282c-11.74005-3.7863-23.2596-8.0577-34.5366-12.8016-1.071-.4536-2.11995-.33075-2.40975.25515-.28665.57645.28665 1.38285 1.35765 1.83015 11.11005 4.66515 22.4154 8.8515 33.894 12.56535 1.10565.35595 2.3247.17955 2.7972-.33075.46935-.5103.00315-1.16235-1.1025-1.5183"/><path d="m245.767725 443.686635c-.57015-.3339-1.4112.1827-1.9152 1.2285-9.66735 19.89855-17.7849 40.50585-24.2676 61.6896-.3402 1.1088-.02205 1.55295.77175 1.10565.79695-.45045 1.7703-1.60965 2.1168-2.71845 6.38505-20.3175 14.2443-39.9798 23.436-58.88295.5103-1.0458.42525-2.08845-.14175-2.42235" opacity=".25"/><path d="m202.80582 628.759845c.0189-1.16235-.38115-1.5876-.97335-1.03635-.58905.5544-1.13085 1.88685-1.14975 3.0429-.0189 1.08675-.0378 2.1735-.0378 3.26025 0 39.753 5.3361 78.6807 15.6303 115.98615.31185 1.1151.76545 1.2852 1.1781.43785.4158-.84735.6363-2.36565.33075-3.48705-9.78705-36.0108-15.03495-73.8675-15.03495-112.93695 0-1.7577.0252-3.51225.0567-5.2668" opacity=".25"/><path d="m655.492005 1065.72532c.1512.5796 1.1655 1.0143 2.3247.9513 7.17255-.39375 14.30415-.9702 21.4011-1.70415 1.15605-.1197 2.8728-.75915 3.9501-1.2033 1.2852-.52605 2.69955-.82215 4.18005-.82215.63 0 1.24425.063 1.8396.1764 1.00485.1827 2.7216.3591 3.87135.2016 7.6923-1.03634 15.3405-2.27115 22.92885-3.71385 1.1403-.2205 1.8207-.8442 1.5813-1.42065-.24255-.57015-1.3104-.8757-2.4507-.65835-18.87795 3.61305-38.1843 6.00075-57.8403 7.0497-1.15605.05985-1.93725.55755-1.78605 1.14345"/><path d="m1056.72641 719.249895c-6.9174 34.3602-17.9172 67.26195-32.4954 98.154-.50085 1.04895-.38115 2.0097.252 2.2176.62685.2079 1.5246-.41265 2.016-1.46475 14.7924-31.4811 25.70085-64.701 32.5017-99.0612.22365-1.13715-.0126-1.96875-.54495-1.9152-.315.0315-.63315.04725-.9576.04725-.05985 0-.12285-.00945-.1827-.01575-.1008-.0126-.36225.90405-.58905 2.03805" opacity=".25"/><path d="m988.12161 384.25338c.0126.07875.0189.1575.0189.2394 0 .5229-.04725 1.0332-.1386 1.5309-.1449.8379.16695 2.2617.8253 3.21615 48.1383 69.5898 76.3875 153.9468 76.3875 244.7865 0 21.2688-1.55925 42.18165-4.54545 62.63145-.16695 1.14975.1701 2.22075.74025 2.47275.5607.25515 1.1277-.4095 1.2978-1.5624 3.04605-20.8593 4.60845-42.0777 4.60845-63.5418 0-90.12465-27.3168-176.03775-78.00975-248.29245-.6678-.9513-1.2033-1.6128-1.1844-1.4805" opacity=".25"/><path d="m891.877455 980.681625c-1.3986 2.44125-3.78315 4.2462-6.6213 4.8573-1.134.2394-2.85075.7686-3.80205 1.4364-40.8366 28.709095-86.8644 50.519695-136.3698 63.724495-1.11825.2961-1.953.99225-1.901888 1.55925.033938.33705.052838.67725.052838 1.02375 0 .0378 0 .07245-.0063.1071-.00315.05671.9072-.12915 2.02545-.4284 73.1745-19.2906 140.25375-57.622945 195.17085-112.536895 29.38005-29.38005 53.9973-62.25345 73.511555-97.6626.56385-1.01745.5418-2.09475 0-2.46645-.53865-.378-1.38915.1008-1.953 1.1151-29.298155 53.18775-69.511055 99.55575-117.576905 136.08315-.92295.70245-1.94985 2.1798-2.52945 3.1878"/><path d="m350.809515 309.06855c45.5112-39.7152 99.4014-70.04025 158.6403-87.948 1.11195-.33705 1.827-1.0773 1.64745-1.6821-.17955-.60165-1.17495-.8379-2.2869-.504-1.1214.33705-2.2365.6804-3.35475 1.02375-1.10565.3465-14.6916 4.8321-15.78465 5.2164-52.2144 18.3834-100.64565 46.8153-142.90605 84.32235-.8694.7686-.9072 1.1592-.05985 1.00485.504-.0945 1.02375-.1449 1.5561-.1449.16695 0 .3276.0189.48825.0378.2646.0315 1.1844-.5607 2.0601-1.32615" opacity=".25"/><path d="m521.797185 1051.50434c.1071.6741 1.0332 1.47105 2.1546 1.76715 7.4277 1.93725 14.9121 3.69495 22.45635 5.23845 1.13715.2331 2.6838.2394 3.4713.1197.46305-.07245.9387-.11025 1.42695-.11025 1.7073 0 3.31695.39375 4.7565 1.08045 1.0458.4977 2.73105 1.23795 3.8745 1.43325 21.86415 3.7422 44.163 5.8149 66.7422 6.1866 1.16235.0189 2.1609-.45045 2.28375-1.03005.126-.5796-.6678-1.04895-1.83015-1.06785-35.73675-.55755-70.4277-5.4873-103.572-14.27895-1.1214-.2961-1.87425-.00945-1.764.6615"/><path d="m748.475595 218.183175c1.1151.31185 2.59245.12915 3.3642-.29925.7749-.4284.54495-.94185-.57015-1.2537-14.87115-4.1517-30.0006-7.5033-45.3411-10.05165-1.1403-.189-2.9169.08505-4.0383.3843-.89775.24255-1.8396.378-2.81925.378-2.1357 0-4.1202-.60795-5.81175-1.64745-.99225-.6048-2.6145-1.3797-3.77055-1.5246-18.2511-2.32155-36.7605-3.52485-55.4589-3.52485-32.319 0-64.0899 3.528-94.8906 10.36665-1.13085.252-1.8837.92925-1.7325 1.52145.1512.59535 1.14345.87255 2.27745.62055 30.37545-6.80715 61.9479-10.40445 94.34565-10.40445 39.6081 0 77.98455 5.38335 114.4458 15.435"/><path d="m338.49585 320.166c-.00315-.0189-.0063-.0378-.0063-.05985 0-.65835.06615-1.3041.19215-1.92465.21105-1.04895-.1197-1.2096-.96705-.415805-3.4272 3.203555-6.81975 6.457505-10.1556 9.793355-15.3342 15.3342-29.3643 31.6323-42.06195 48.7305-.693.9324-.5418 1.06155.4788.5103.2709-.14805.5481-.28035.8316-.40005 1.06785-.45675 2.57355-1.36395 3.27285-2.29005 14.19705-18.73305 29.8935-36.26595 46.89405-52.4412.84105-.80325 1.5246-1.47105 1.52145-1.50255" opacity=".25"/><path d="m336.986685 892.659915c17.4447 19.99935 36.8802 38.2221 57.98205 54.369.92295.70245 2.56095 1.60335 3.55005 2.2113.5922.36225 1.1529.7812 1.6695 1.23795.8694.7749 2.20185 2.0853 3.14055 2.7657 64.89945 47.010595 144.6102 74.774705 230.6997 74.774705 13.1481 0 26.145-.65206 38.96235-1.92151 1.1592-.11025 2.2176-.72135 2.44125-1.33244.21735-.61111-.4788-.98595-1.638-.8694-13.0788 1.32614-26.3403 2.0223-39.7656 2.0223-108.0576 0-206.03205-43.958255-277.011-114.908855-.819-.819-2.13885-1.94355-2.8224-2.6397-.68355-.693-1.7703-2.0349-2.57355-2.87595-18.6039-19.3347-35.24535-40.56885-49.5999-63.3843-.6174-.9828-1.39545-1.37655-1.8018-.92925s-.27405 1.57185.34335 2.55465c9.0594 14.3451 19.01655 28.0791 29.79585 41.1012.7371.8946 2.142 2.12625 2.96415 2.94525.4536.4536.8694.945 1.23795 1.4679.67095.945 1.6632 2.53575 2.4255 3.41145"/><path d="m844.236855 302.135085c.09135-.62685-.56385-1.62855-1.5498-2.2428-9.20115-5.7708-18.6543-11.17935-28.34055-16.18785-1.0332-.5355-2.28375-.8757-2.80035-.8253-.3087.03465-.62055.05355-.9387.05355-3.07125 0-5.79915-1.42065-7.59465-3.6288-.7308-.9009-1.9971-2.15775-3.0492-2.64915-42.01785-19.59615-88.03305-31.98825-136.46745-35.59185-1.1529-.08505-2.2302.3339-2.4633.9009s.4599 1.0647 1.6191 1.14975c65.6712 4.7628 126.91035 25.7733 179.6949 59.0373.9828.62055 1.7955.6111 1.89-.01575"/><path d="m467.53497 279.211275c50.56065-23.82345 106.99605-37.16055 166.49325-37.16055 1.638 0 3.276.02205 4.9077.0504 1.1592.02205 1.89945-.41895 1.7136-1.0017-.1827-.5859-1.2159-1.0899-2.37825-1.1088-1.4112-.02205-2.8224-.04095-4.24305-.04095-58.58685 0-115.21755 12.6945-166.75155 36.76995-1.0521.4914-1.7766 1.449-1.70415 2.13885.07245.693.91035.84735 1.96245.3528"/><path d="m342.791505 371.951685c.77805-.86625.99855-1.8774.5355-2.3184-.46305-.43785-1.43955-.13545-2.21445.72765-65.38455 72.46575-101.16225 165.3057-101.16225 263.6676 0 21.4767 1.75455 42.55335 5.08095 63.11025.18585 1.14345.79065 1.9152 1.35765 1.77345.56385-.1449.87255-1.14345.68985-2.2869-3.29175-20.3931-5.0274-41.2902-5.0274-62.5968 0-100.6677 38.1465-192.58785 100.74015-262.07685"/><path d="m992.938905 474.155955c.4599-.4032.4851-1.5372.00945-2.59245-28.728-63.2394-73.67535-117.61155-129.5091-157.7457-.94185-.67725-2.1294-.91035-2.6838-.5859-.55125.32445-.2583 1.0773.6867 1.7514 56.0637 40.0932 101.15595 94.5819 129.85245 158.0229.4725 1.0584 1.1844 1.55295 1.6443 1.14975"/><path d="m250.57242 725.085585c8.22465 34.6185 21.05145 67.47615 37.7622 97.9083.55755 1.01745 1.48365 1.67265 2.079 1.5498.59535-.126.63-.9891.0693-2.00655-16.7328-30.36285-29.5785-63.15435-37.80945-97.7193-.2709-1.1277-.945-1.94355-1.5246-1.86795s-.8442 1.008-.57645 2.1357"/><path d="m839.75472 967.429575c-42.81795 26.523-91.0917 45.035545-142.7265 53.417695-1.1466.1827-1.72305.7182-1.35135 1.2474.37485.52605 1.5561.8379 2.7027.6489 52.60185-8.6751 101.7261-27.801895 145.15515-55.178545.9828-.6174 1.4364-1.0647 1.01745-1.01745-.24885.02835-.504.04095-.7623.04095-.38115 0-.75915-.02205-1.1277-.0693-.6237-.07875-1.9215.29925-2.90745.91035"/><path d="m890.73936 929.87244c-11.2644 9.78705-23.08005 18.9504-35.41545 27.42075-.9576.65835-1.8711 2.016-2.25225 2.9673-.378.95445-.0567 1.1277.90405.48195 13.36545-9.0279 26.1513-18.85905 38.28195-29.4084.87885-.75915 1.2096-1.6758.79065-2.079-.41895-.40635-1.4364-.14175-2.30895.6174"/><path d="m999.62037 492.8238c12.8709 33.2388 21.32235 68.6574 24.66135 105.525.10395 1.1592.48825 1.9089.8883 1.71675.3969-.19215.81585-.6363.9513-1.0143.13545-.38115.18585-1.6191.07875-2.772-3.4587-36.17775-11.80305-70.94745-24.3999-103.62555-.41895-1.0836-1.1907-1.8648-1.72305-1.8081-.32445.0315-.65205.04725-.97965.04725-.0441 0-.0819-.00315-.1197-.00945-.0693-.00945.22365.85995.6426 1.9404"/><path d="m983.590335 811.0368c-18.7488 36.87705-43.155 70.4151-72.0846 99.4455-.81585.8253-1.1403 1.81125-.756 2.24595.3843.43785 1.3293.1575 2.1483-.66465 28.40985-28.4949 52.5042-61.2927 71.1837-97.33815.53235-1.0269.7182-2.61135.5733-3.56895-.0819-.567-.12915-1.1466-.12915-1.74195 0-.04095.00315-.08505.00315-.12915.0063-.0693-.41265.71505-.9387 1.7514"/><path d="m363.82941 350.33544c20.538-19.5678 43.18965-36.9306 67.5738-51.71355.99225-.6048 1.79235-1.1844 1.7766-1.3041-.0126-.07245-.0189-.14175-.0189-.2142 0-.43155.03465-.8505.09135-1.26315.09765-.69615-.55755-.76545-1.5561-.1701-24.82515 14.89635-48.1446 32.65605-69.5583 53.08695-.84105.8001-1.1025 1.77345-.6363 2.20815.4662.43785 1.4868.1701 2.32785-.63"/><path d="m989.715195 798.43995c-.48825 1.0521-.248894 1.35135.6363.8253.89145-.5292 2.07585-1.67895 2.5578-2.73735 22.535105-49.5747 35.109905-104.5926 35.109905-162.49905 0-3.9942-.07875-7.96635-.2016-11.92905-.0378-1.16235-.56385-2.1924-1.15605-2.3751-.5859-.17955-1.008.55755-.9702 1.71675.1386 4.18005.22995 8.36955.22995 12.5874 0 58.6845-12.9906 114.37965-36.206105 164.4111"/><path d="m278.345655 614.326545c.06615-1.1592.04095-2.0916-.05985-2.079-.063.00945-.12285.01575-.18585.01575-.29295 0-.58275-.0189-.8694-.04725-.47565-.0504-.91665.81585-.9828 1.97505-.36225 6.56775-.567 13.1796-.567 19.83555 0 20.88135 1.7955 41.35005 5.23845 61.26435.19845 1.1403.9387 2.2869 1.6002 2.64285.6615.3654.98595-.19845.7812-1.33875-3.6162-20.3175-5.5188-41.22405-5.5188-62.56845 0-6.61185.2016-13.17645.56385-19.7001" opacity=".35"/><path d="m451.80954 941.205195c-.4788.39375-.09135 1.14975.9072 1.7388 46.7271 27.51525 100.19835 44.73315 157.29525 48.5289 1.15605.07875 2.33415-.34965 2.6964-.9135.35595-.5607-.2394-1.03005-1.3986-1.10565-56.91735-3.59415-110.24055-20.6199-156.8448-47.9241-1.00485-.58905-2.1735-.7119-2.65545-.32445"/><path d="m973.89432 740.58957c-.3465 1.11195-.6111 2.95155-.81585 4.095-.1953 1.1151-.55125 2.1609-1.0332 3.1311-.51975 1.03635-1.4112 2.67435-1.7955 3.7674-10.27215 29.29185-24.27075 56.83545-41.4225 82.0827-.6552.96075-.96705 1.7073-.69615 1.67265.1575-.0189.3213-.0378.48825-.0378.26145 0 .51975.02205.77175.052603.42525.045047 1.2978-.673153 1.9467-1.637053 38.4741-57.0969 60.9651-125.811 60.9651-199.68795 0-26.3781-2.88225-52.09785-8.31915-76.8663-.252-1.134-.84735-1.7262-1.36395-1.38285-.5229.34335-.7686 1.49625-.51975 2.6334 5.292 24.3747 8.09865 49.67235 8.09865 75.61575 0 37.107-5.7267 72.90045-16.3044 106.56135" opacity=".35"/><path d="m664.84971 278.419365c.6174-.12285 1.25685-.189 1.91205-.189 1.26315 0 2.4696.23625 3.58155.6615 1.08675.41265 2.8098 1.0395 3.9627 1.16865 53.0964 6.00705 102.69 23.74155 146.13165 50.5386.98595.60795 1.6947.66465 1.63485.11025-.03465-.3339-.05355-.67095-.05355-1.0143 0-.09135.00945-.18585.0252-.28035.02205-.1512-.7686-.7749-1.7577-1.3797-52.51995-32.0985-113.89455-51.05205-179.5311-52.2648-1.1655-.02205-1.7388.40005-1.3671.9828.38115.5859 1.5561 1.1151 2.7153 1.14345 6.30945.1386 12.5811.43785 18.80235.9072 1.1592.0819 2.90115-.17955 3.9438-.3843" opacity=".35"/><path d="m977.46264 535.53024c.6237.05985.85995-.74025.5355-1.85535-23.14305-79.2351-72.9855-147.1806-139.06935-193.43205-.9513-.66465-2.2428-.9324-2.9106-.68355-.67095.2457-.4662.89145.4914 1.5498 66.07755 45.84195 115.97355 113.44095 139.23 192.35475.33075 1.1151 1.0962 2.0097 1.72305 2.0664" opacity=".35"/><path d="m633.10212 990.187065c-.5103-.00945-.6048.43155-.2772 1.0143.3276.5859.68355 1.08675.86625 1.0899.11655.00315.2268.0063.33705.0063 115.5798 0 218.5344-55.02735 284.08905-140.24115.70875-.9198 1.01115-2.15145.76545-2.78775-.2457-.63945-.9387-.43155-1.638.4914-65.1357 85.29885-167.85405 140.4333-283.2165 140.4333-.3087 0-.6174-.00315-.9261-.0063"/><path d="m621.37908 276.931935c.3717-.5922-.21105-1.00485-1.3734-.96075-76.2237 2.9484-146.40885 29.81475-203.2569 73.29735-.9198.70245-1.32615 1.6128-.96075 2.06325s1.36395.27405 2.28375-.43155c56.15505-42.9345 125.39835-69.56145 200.60775-72.765 1.1592-.04725 2.32785-.60795 2.69955-1.2033" opacity=".35"/><path d="m431.980605 928.497465c.16695-.58905-.42525-1.59075-1.37655-2.2554-70.9065-49.4865-123.0516-124.06905-143.4132-210.76965-.26775-1.1277-.7875-1.51515-1.24425-.9198-.45675.5985-.68355 1.9341-.41265 3.0618 20.8152 86.74785 73.2879 161.3115 144.4653 210.77595.95445.6615 1.81125.69615 1.98135.1071" opacity=".35"/><path d="m302.31369 501.18957c-.40005-.55125-1.02375-.1638-1.45215.91665-11.0817 27.8775-18.7488 57.4623-22.50675 88.2441-.14175 1.14975.22365 2.08215.8001 2.14515.5796.063 1.14975-.76545 1.28835-1.91835 3.68235-30.1392 11.1321-59.13495 21.88305-86.48325.4221-1.08045.3906-2.35305-.0126-2.9043" opacity=".35"/><path d="m330.159375 448.262325c18.68265-30.45105 41.81625-57.8907 68.49045-81.41805.8694-.7686 1.2348-1.7073.8568-2.1483s-1.3545-.2142-2.2239.55125c-7.6419 6.74415-14.994 13.8033-22.0374 21.1617-.80325.83475-1.575 2.4633-1.96875 3.5532-.99855 2.76885-3.0744 5.01795-5.733 6.26535-1.04895.4977-2.59875 1.4175-3.36105 2.29005-13.59225 15.5547-25.86465 32.2812-36.6408 50.022-.60165.99225-.55755 1.66635.1008 1.57815.39375-.0504.7938-.0819 1.2033-.0819.0378 0 .07245.00315.11025.0126.05985.0063.59535-.79695 1.2033-1.78605" opacity=".35"/><path d="m319.47426 464.579955c-.3024-.67095-.91665-.4221-1.46475.60165-3.02715 5.6511-5.8968 11.3967-8.62785 17.22105-.4914 1.0521-.34335 1.76715.34335 1.67265.68355-.09135 1.64115-.945 2.13885-1.99395 2.30895-4.8825 4.725-9.7083 7.24815-14.4711.54495-1.02375.6615-2.3562.36225-3.0303" opacity=".35"/><path d="m948.897495 554.453235c.56385-.1449.80325-1.13715.50715-2.25855-.0126-.04095-.02205-.0819-.03465-.12285-.2898-1.12455-.9072-1.68525-1.4112-1.323s-.7434 1.3671-.50085 2.3058.87885 1.54665 1.43955 1.3986" opacity=".4"/><path d="m953.02557 694.77912c.63-.19845 1.33245-1.2411 1.5372-2.38455 1.5561-8.55855 2.77515-17.2305 3.64455-26.00955.1134-1.15605-.26775-1.8963-.86625-1.7325-.5985.1575-1.1844 1.17495-1.3041 2.331-.8946 8.8263-2.15145 17.54865-3.7485 26.1513-.2079 1.1403.10395 1.84905.7371 1.6443" opacity=".4"/><path d="m445.53096 897.05889c-40.34835-28.98315-73.76985-67.00995-97.3035-111.0879-.5481-1.02375-1.4553-1.7073-2.0538-1.59075-.5985.11025-.65835.9765-.1134 2.00025 24.0534 45.2592 58.46715 84.2121 100.06605 113.66145.94815.67095 1.4805.567 1.31355-.2583-.16695-.82215-.96705-2.0475-1.9089-2.72475"/><path d="m946.716435 717.82263c-37.01565 137.99835-163.17 239.8977-312.6879 239.8977-25.6347 0-50.57955-3.01455-74.51325-8.6751-1.1277-.26775-2.52315-.0693-3.1689.36855-.64575.44415-.2961.96075.8316 1.2348 24.65505 5.985 50.3874 9.1728 76.85055 9.1728 150.10065 0 276.7968-102.03165 314.4204-240.3765.3024-1.12455.1197-2.3562-.36225-2.8035-.48195-.45045-1.06785.05985-1.37025 1.18125" opacity=".4"/><path d="m460.644345 908.61309c-.85365.1512-.76545.67725.21735 1.29465 23.0643 14.5215 48.0627 26.23635 74.51955 34.6563 1.10565.34965 1.67265.08505 1.3482-.62685-.32445-.7182-1.4049-1.60965-2.51055-1.96875-24.8724-8.0766-48.43125-19.089-70.2702-32.63085-.98595-.60795-2.4507-.87885-3.30435-.7245"/><path d="m543.41784 323.189685c17.66835-5.16285 35.9541-8.8641 54.7218-10.9431 1.1529-.12915 1.1592-.4032.07245-.8127-.09765-.0378-.1953-.0756-.29295-.11655-1.07415-.4347-2.81295-.82215-3.96585-.6804-17.9235 2.205-35.40285 5.87475-52.31205 10.8801-1.1151.33075-1.57185.92925-1.08045 1.38915s1.7451.60795 2.85705.2835" opacity=".4"/><path d="m520.83738 329.53599c.1008-.660967-.6363-.8568-1.7199-.4473-5.0526 1.91205-10.03905 3.9501-14.9688 6.0984-1.0647.4662-2.67435 1.42695-3.70125 1.96245-.40635.2079-.8253.40005-1.2537.57015-1.08045.4221-2.8602 1.00485-3.90915 1.4994-79.7328 37.674-141.8193 106.7535-170.2134 191.1861-.36855 1.09935-.1386 1.80495.52605 1.64745.6615-.16065 1.50885-1.1277 1.88055-2.2302 31.059-91.1169 101.6694-164.0772 191.27115-198.33345 1.0836-.4158 1.9845-1.2915 2.08845-1.953" opacity=".4"/><path d="m337.67748 764.34372c-17.61795-39.89475-27.41445-83.979-27.41445-130.3155 0-26.7561 3.27285-52.7625 9.42165-77.64435.2772-1.12455.07875-2.3877-.3969-2.87595-.4788-.4851-1.0584-.00945-1.3419 1.11825-6.3882 25.42365-9.78705 52.0254-9.78705 79.40205 0 46.8783 9.95715 91.4697 27.86175 131.78025.46935 1.0584 1.18755 1.54665 1.6443 1.13715.45675-.40635.48195-1.54035.0126-2.6019" opacity=".4"/><path d="m809.52228 362.107935c.97965.63315 1.9215.70245 2.17035.17325.25515-.53235-.2835-1.45845-1.26-2.08845-50.8725-32.90175-111.44385-52.03485-176.40315-52.03485-6.66225 0-13.2741.2205-19.84185.6237-1.15605.0693-2.7972.7686-3.7737 1.3986-.0819.0504-.16695.10395-.252.15435-.9891.6048-.9324.8757.22365.79065 7.80885-.567 15.6933-.8631 23.6439-.8631 64.64115 0 124.8975 19.06695 175.4928 51.84585" opacity=".4"/><path d="m832.1229 378.157815c17.5518 13.63005 33.6735 29.02095 48.09735 45.9144.75285.87885 1.4427 1.5876 1.5372 1.5561.1008-.0252.35595-.4221.61425-.8757.25515-.45675-.11025-1.52775-.86625-2.4066-14.36085-16.7769-30.39435-32.0733-47.8359-45.6435-.91665-.71505-1.97505-.9261-2.40345-.5229-.43155.4032-.06615 1.2663.8568 1.9782" opacity=".4"/><path d="m897.48225 446.14584c18.31095 25.61265 32.98365 53.991 43.25895 84.38535.378 1.09935.79065 1.9782.945 1.95615.09135-.00945.1827-.02205.27405-.02205.2898 0 .5733.0189.85365.04725.46935.05355.55125-.7686.1827-1.86795-10.41705-31.0716-25.39215-60.06105-44.1378-86.184-.67725-.9387-1.3986-1.64115-1.60965-1.5624-.21105.0756-.49455.45045-.6678.8442-.17325.3906.22365 1.45845.9009 2.40345" opacity=".4"/><path d="m956.78478 601.737255c.4914 1.37655.75915 2.85705.75915 4.39425 0 .72765-.05985 1.4427-.1764 2.1357-.19845 1.1466-.4473 2.97045-.36855 4.12965.47565 7.1505.7245 14.36085.7245 21.63105 0 2.80665-.04725 5.6007-.12285 8.38845-.03465 1.1592.4221 2.23965.99225 2.4822.57645.24255 1.0458-.44415 1.08045-1.60965.09135-3.07755.15435-6.1614.15435-9.261 0-17.6841-1.43955-35.0406-4.1643-51.97185-.189-1.14345-.80325-1.9656-1.37655-1.8837-.58275.07875-.8946 1.0332-.70875 2.1798.8253 5.0904 1.53405 10.2186 2.1105 15.3846.1323 1.1529.70245 2.90745 1.0962 4.0005" opacity=".4"/><path d="m869.747445 809.80956c-.693.9324-.89775 1.6254-.45045 1.589075.2709-.023525.54495-.036125.819-.036125.1827 0 .35595.0063.53235.01575.29925.01575 1.1025-.71505 1.79235-1.64745 36.34785-49.1904 57.86235-109.98225 57.86235-175.70385 0-96.16635-46.0404-181.78335-117.2304-235.95705-.9198-.70245-2.18925-1.01745-2.85705-.7812-.67095.22995-.4788.90405.4473 1.6002 71.3286 53.74215 117.54225 139.13865 117.54225 235.13805 0 65.8539-21.7665 126.7056-58.4577 175.7826" opacity=".5"/><path d="m342.000855 598.075065c12.5307-102.375 77.83335-188.6661 167.8068-230.74065 1.04895-.49455 2.6712-1.4427 3.717-1.9467.2268-.11025.46305-.2142.6993-.31185 1.07415-.441 2.8602-1.0206 3.9249-1.4805 35.5824-15.30585 74.7558-23.80455 115.8822-23.80455 34.46415 0 67.5549 5.96295 98.30835 16.9092 1.0962.38745 2.18295.2709 2.47905-.24255.29295-.5103-.31185-1.22535-1.4049-1.6128-31.0779-11.10375-64.5372-17.1549-99.3825-17.1549-151.20945 0-276.30855 113.84415-294.13755 260.316-.14175 1.14975-.1071 2.079.07245 2.06955.1071-.0063.2142-.0126.32445-.0126.2457 0 .48825.00945.7308.029008.4032.027692.8379-.863758.97965-2.016658" opacity=".5"/><path d="m814.09356 867.28761c.01575.24255.02835.4914.02835.74025 0 .189-.0063.37485-.0189.5607-.0126.315.7056-.00315 1.62225-.71505 15.1956-11.8377 29.21625-25.1118 41.8446-39.63015.7623-.87255 1.17495-2.1546 1.02375-2.87595-.15435-.71505-.8064-.59535-1.56555.2835-12.47085 14.49-26.32455 27.7641-41.35635 39.6018-.9072.71505-1.6128 1.62225-1.57815 2.0349"/><path d="m339.380055 653.12478c-.5796.0756-.99225 1.03005-.91035 2.18925.5292 7.4592 1.32615 14.8428 2.4003 22.14135.1701 1.1466.7245 1.77345 1.26315 1.45215.53865-.32445.8568-1.47105.68985-2.61765-1.01115-7.00875-1.76085-14.10255-2.26485-21.2625-.0819-1.15605-.60165-1.9782-1.1781-1.9026" opacity=".5"/><path d="m792.05868 882.034965c-28.4382 18.18495-60.1965 31.6071-94.14405 39.1608-1.134.24885-2.47905 1.16235-3.17205 1.90575-.6867.7434-.43785 1.03635.693.79695 36.1683-7.6545 69.91425-21.9366 99.92115-41.50125.9702-.63 1.61595-1.13715 1.43955-1.11825-.10395.00945-.21105.01575-.31815.01575-.45675 0-.90405-.04095-1.33875-.11025-.73395-.1134-2.10105.2268-3.0807.8505"/><path d="m795.258135 387.370935c-.0189-.24255-.02835-.48195-.02835-.72765 0-.1827.00315-.3654.0126-.54495.01575-.3024-.74025-1.0647-1.7199-1.69155-10.34775-6.63705-21.1365-12.6441-32.30955-17.9739-1.04265-.504-1.9845-.43155-2.1609.12915-.1701.5607.504 1.40175 1.5498 1.9026 11.4156 5.46525 22.42485 11.64555 32.9742 18.48105.9702.63315 1.7136.82845 1.6821.42525" opacity=".5"/><path d="m339.853815 629.213445c.02205-1.41435.0567-2.8287.1008-4.23675.03465-1.1592-.4032-2.1042-.9828-2.1672-.5796-.05985-1.08045.7812-1.1151 1.9404-.0441 1.42065-.07875 2.8476-.10395 4.2714-.0189 1.16235.4473 2.0916 1.0269 2.1483.58275.05355 1.05525-.79695 1.07415-1.95615" opacity=".5"/><path d="m550.76994 916.45407c.00945-.14805-.88515-.5292-1.9971-.8631-98.42175-29.8494-175.1778-109.96965-200.2392-210.33495-.2835-1.12455-1.01115-2.07585-1.63485-2.1798-.6237-.1008-.90405.6867-.6237 1.81125 25.0677 101.73555 102.8412 182.952 202.5954 212.93055 1.11195.3339 1.96245.2205 1.925862-.24885-.023262-.28035-.035862-.56385-.035862-.85365 0-.0882.0063-.1764.00945-.26145" opacity=".5"/><path d="m577.35279 922.717215c-1.1403-.2205-2.28375.0441-2.6082.57015s.29295 1.1151 1.4301 1.33875c18.7173 3.7233 38.06145 5.67315 57.85605 5.67315 16.6824 0 33.04035-1.39545 48.9762-4.06035 1.1466-.189 1.26945-.55125.35595-.98595-.9135-.44415-2.49165-.8001-3.63825-.6237-14.89635 2.34045-30.15495 3.56895-45.6939 3.56895-19.3851 0-38.33235-1.88685-56.67795-5.481"/><path d="m893.8125 697.17249c-.27405 1.1277-.43785 2.41605-.38115 2.8854.0315.2772.05355.55755.05355.84735 0 1.8459-.4788 3.5658-1.30095 5.08725-.5481 1.0206-1.4175 2.64915-1.74825 3.7611-32.73165 110.64375-135.28935 191.60505-256.40685 191.60505-1.10565 0-2.2113-.0126-3.3138-.0252-1.1592-.0189-1.91205.4158-1.73565.99855.1764.5796 1.21275 1.0899 2.3751 1.1025.8883.01575 1.7829.0252 2.67435.0252 148.5666 0 269.43525-120.8655 269.43525-269.4321 0-6.68115-.25515-13.3056-.7371-19.8639-.08505-1.1592-.567-1.7073-1.1151-1.28205-.5481.4221-.94815 1.6569-.87255 2.8161.41265 6.05745.6237 12.1716.6237 18.32985 0 21.74445-2.62395 42.8904-7.55055 63.1449" opacity=".6"/><path d="m414.64332 788.57478c-.64575.09135-.63315.8631.04095 1.8081 20.50965 28.6776 46.49715 53.1783 76.42215 71.9712.9828.61425 1.9215.65205 2.15145.11025s-.34335-1.45845-1.32615-2.0727c-29.26035-18.43065-54.71865-42.35175-74.90385-70.33005-.6804-.945-1.7388-1.575-2.38455-1.4868"/><path d="m443.559375 446.53518c.81585-.82845 1.14345-1.82385.77175-2.27115-.378-.4473-1.31355-.16695-2.1294.6615-48.00285 48.68325-77.6664 115.49475-77.6664 189.1008 0 50.32755 13.86945 97.4736 37.99215 137.8188.5922.9954 1.3041 1.30725 1.6569.756.3465-.55125.1953-1.77345-.3969-2.772-23.59035-39.8223-37.1511-86.25645-37.1511-135.8028 0-72.9666 29.3769-139.19535 76.923-187.49115" opacity=".6"/><path d="m514.581795 874.341405c-.3591.46935.1575 1.24425 1.20015 1.75455 26.9451 13.20795 56.39445 22.05945 87.4377 25.60635 1.1529.1323 2.2428-.24255 2.48535-.79695.2457-.55755-.4473-1.08675-1.60335-1.2159-30.89205-3.4524-60.20595-12.2031-87.02505-25.3008-1.04265-.50715-2.1357-.51975-2.4948-.04725"/><path d="m463.982085 426.463065c.4221.4032 1.46475.16065 2.3688-.567 45.8955-37.0503 104.2398-59.2641 167.67765-59.2641 8.7003 0 17.30925.42525 25.7985 1.24425 1.1529.1134 1.9971-.26145 1.9341-.8568-.05985-.58905-.99855-1.1718-2.1546-1.2789-8.4168-.79695-16.9533-1.2096-25.578-1.2096-36.82035 0-71.9334 7.434-103.93425 20.8593-1.071.45045-2.6208 1.47735-3.591 2.1168-1.1592.7623-2.45385 1.35135-3.83355 1.72305-1.1214.2961-2.92005.7686-3.969 1.26945-19.3347 9.18855-37.4094 20.6073-53.88705 33.9318-.9009.7308-1.2537 1.6254-.8316 2.03175" opacity=".6"/><path d="m876.625785 519.286635c.5292-.2394.57645-1.2411.0693-2.2869-36.0108-74.40615-105.23835-129.843-188.2944-146.9349-1.134-.2331-2.20815.0441-2.4444.58905-.2394.5481.45045 1.14975 1.59075 1.38285 82.5804 16.8525 151.4331 71.9019 187.23285 145.8324.50715 1.04265 1.3167 1.6569 1.8459 1.4175" opacity=".6"/><path d="m893.51388 565.345935c.6174.05985.8757-.75285.57015-1.87425-1.92465-7.0875-4.1265-14.0553-6.59925-20.8971-.3969-1.09305-1.14975-1.7703-1.6947-1.57185-.54495.2016-.6741 1.2033-.28035 2.29635 2.36565 6.5394 4.47615 13.1922 6.32835 19.95525.3087 1.11825 1.0584 2.03175 1.6758 2.0916" opacity=".6"/><path d="m419.54976 519.93396c.50085-.94185 1.008-1.8774 1.5246-2.8098.5607-1.01745.4284-1.59075-.33705-1.4238-.76545.1701-1.85535 1.04265-2.4129 2.0601-.4221.7812-.8442 1.56555-1.26 2.35305-.5418 1.02375-.49455 1.76085.10395 1.701.3591-.0378.7245-.0567 1.09305-.0567.0504 0 .10395.00945.1512.0126.08505.01575.58905-.8127 1.13715-1.83645" opacity=".7"/><path d="m685.38645 871.48656c-16.55955 3.58155-33.73965 5.47785-51.3576 5.47785-45.423 0-87.97005-12.5307-124.3809-34.30665-.99225-.59535-2.1231-.72135-2.57355-.315-.45045.40005-.05355 1.1781.9387 1.7766 36.8487 22.17915 79.96905 34.9461 126.01575 34.9461 17.62425 0 34.81695-1.88685 51.3954-5.43375 1.134-.2457 2.016-.75285 1.994355-1.1277-.009855-.2205-.019305-.44415-.019305-.6741 0-.1323.00945-.26775.01575-.4032.00945-.21735-.8946-.18585-2.0286.05985"/><path d="m461.70873 806.640975c-.48825.33705-.252089 1.2285.57645 2.03805 7.94745 7.81515 16.4304 15.07905 25.37955 21.76335.9324.68985 1.8081.77175 2.01915.2016.2079-.56385-.3276-1.55925-1.2537-2.2554-8.58375-6.44175-16.72965-13.42845-24.37785-20.9223-.8316-.81585-1.8585-1.16235-2.3436-.8253"/><path d="m611.538165 391.649895c-.51345-.1134-1.0143-.2583-1.49625-.441-1.0899-.4032-2.8287-.80955-3.9816-.67725-26.649 3.03975-52.0128 10.37295-75.3858 21.2877-1.04895.4914-2.1609 1.6758-2.64285 2.5578s-.1512 1.1088.8946.6048c25.4079-12.2409 53.25705-20.18835 82.60245-22.8942 1.15605-.1071 1.14345-.189.00945-.43785" opacity=".7"/><path d="m710.87877 865.59291c.29925.5103 1.39545.65205 2.49795.2772 2.84445-.9765 5.67315-1.99395 8.4672-3.0744 1.0836-.4158 1.449-1.02375.87255-1.42065-.5796-.4032-1.86795-.4536-2.95785-.0441-2.47275.93555-4.9644 1.8333-7.4781 2.6901-1.09305.37485-1.7073 1.06155-1.40175 1.57185"/><path d="m465.787665 457.31259c.063-.17955.12915-.3591.19845-.5355.4284-1.08045.26145-1.23165-.58275-.43155-13.86945 13.17015-26.21115 27.9279-36.7101 43.9992-.6363.9702-.8757 2.3625-.68355 3.14685.19215.7812.756.6426 1.38285-.33705 9.86895-15.3783 21.42315-29.57535 34.398-42.33285.8253-.8127 1.6254-2.40975 1.9971-3.5091" opacity=".7"/><path d="m517.80582 420.55839c-.08505.0063-.1701.00945-.2583.00945-.5292 0-1.04895-.03465-1.55925-.1071-.85995-.11655-2.3562.15435-3.3642.7308-14.06475 8.05455-27.25695 17.46045-39.4002 28.0413-.8757.7623-.74025.945.3717.6174.1953-.05985.3906-.11025.58905-.1575 1.13085-.27405 2.7909-.9261 3.6792-1.67265 11.8755-9.98865 24.71175-18.86535 38.35755-26.46315 1.01115-.56385 1.72305-1.008 1.58445-.99855" opacity=".7"/><path d="m876.179745 653.48136c-6.97095 87.5574-60.5556 162.17145-135.8721 198.96975-1.04265.50715-1.8837 1.4805-1.99395 2.17035-.10395.6867.59535.8316 1.638.3276 42.3045-20.36475 77.90265-52.51365 102.49785-92.17845.60795-.98595 1.1718-2.7405 1.4994-3.85245.5103-1.74195 1.4301-3.30435 2.6523-4.5801.80955-.8379 2.0538-2.18925 2.60505-3.20985 16.08075-29.4273 26.29935-62.4834 29.07765-97.60905.09135-1.1592-.0315-2.07585-.2709-2.0475-.1386.0189-.2835.0378-.43155.0378-.21105 0-.41895-.02205-.6237-.045442-.3402-.039608-.6867.861292-.77805 2.017342" opacity=".7"/><path d="m406.36071 718.911585c-9.8973-26.43795-15.3216-55.0368-15.3216-84.88305 0-32.6466 6.47325-63.8064 18.20385-92.27295.441-1.07415.4347-2.3499.0441-2.9106-.39375-.5607-1.02375-.18585-1.4742.88515-12.14955 29.03985-18.8748 60.8958-18.8748 94.2984 0 30.4416 5.5944 59.60115 15.78465 86.5179.41265 1.0836 1.07415 1.55295 1.5246 1.1025s.51975-1.6506.1134-2.73735" opacity=".7"/><path d="m414.503145 739.66032c-.22995.02835-.4599.04725-.693.04725-.1575 0-.31185-.01575-.4662-.0378-.25515-.0315-.05355.79695.45675 1.8396 8.68455 17.70615 19.45125 34.21845 31.9662 49.2219.7434.8946 1.60335 1.19385 1.96245.72135.36225-.4725.09135-1.54035-.65205-2.42865-12.07395-14.5278-22.4973-30.48255-30.96135-47.56815-.51345-1.0395-1.23165-1.8396-1.6128-1.7955" opacity=".7"/><path d="m686.266245 396.701235c1.134.24885 2.51685.03465 3.14055-.4158s.25515-.96705-.87255-1.22535c-17.53605-4.0005-35.7777-6.1236-54.50445-6.1236-3.61305 0-7.21035.0819-10.7856.23625-1.1592.05355-2.81295.72765-3.82095 1.3041-.378.21735-.7686.41265-1.1718.5859-1.06785.4536-1.0647.5607.0945.48825 5.1849-.33705 10.41705-.5103 15.68385-.5103 17.92665 0 35.40915 1.95615 52.23645 5.66055" opacity=".7"/><path d="m878.311665 631.509795c.4032.04725.7182-.84105.69615-2.0034-.02205-1.3671-.05985-2.73735-.1071-4.1013-.0378-1.1592-.59535-2.33415-1.19385-2.69325-.59535-.36225-.9954.22995-.94815 1.38915.06615 1.7703.1134 3.5469.1449 5.32665.02205 1.16235.17325 2.08845.3528 2.06325.1071-.01575.2142-.02835.3276-.02835.2457 0 .48825.0189.72765.04725" opacity=".7"/><path d="m798.60186 454.617765c.25515-.02835.5166-.04725.7875-.04725.252 0 .504.0189.75285.04725.41265.0441.05985-.53865-.7938-1.323-25.4457-23.30055-55.7991-41.3154-89.31825-52.28055-1.10565-.3591-1.68525-.10395-1.38915.60165.29295.70875 1.35765 1.60335 2.457 1.9719 31.81815 10.6722 60.7194 27.7578 85.16025 49.72905.8631.7749 1.90575 1.35135 2.3436 1.30095" opacity=".7"/><path d="m809.40825 465.281145c-.0441.378.55755 1.3608 1.3545 2.205 34.2657 36.3573 57.4686 83.25135 64.1781 135.23895.1512 1.1529.6489 1.6632 1.1781 1.18755.52605-.47565.8883-1.7325.7308-2.8854-7.1127-52.6428-31.01175-100.02825-66.10275-136.59345-.80325-.8379-1.3923-1.1403-1.3419-.6741.03465.27405.04725.5544.04725.8379 0 .22995-.0126.4599-.0441.68355" opacity=".7"/><path d="m503.075475 812.919555c-.1071.6426.5103 1.71045 1.45215 2.38455 25.66305 18.37395 55.36125 31.45275 87.4944 37.60155 1.1403.22365 1.8837-.09765 1.7388-.7182s-1.1277-1.3041-2.27115-1.52775c-31.8213-6.237-61.21395-19.32525-86.57775-37.67085-.9387-.6741-1.72935-.70875-1.83645-.0693"/><path d="m445.124925 748.784295c-.32445-.45675-.61425-.9387-.87255-1.43955-.53235-1.03005-1.2726-2.7531-1.84905-3.75795-18.55035-32.30325-29.17845-69.71265-29.17845-109.56015 0-5.88105.2457-11.70225.70245-17.47305.09135-1.15605-.29925-2.1861-.86625-2.36565s-1.0962.56385-1.1907 1.7199c-.4851 5.97555-.74655 12.01725-.74655 18.1188 0 64.6632 27.69165 122.97285 71.8326 163.7181.85365.79065 2.0412 1.19385 2.6649.97335.6237-.2268.4473-.97965-.4095-1.764-14.4207-13.17645-27.09-28.23975-37.6173-44.78355-.6237-.97965-1.8018-2.43495-2.4696-3.38625" opacity=".8"/><path d="m635.14332 854.76762c-.3717.00945-.74025.0126-1.1151.0126-.11655 0-.23625 0-.3528-.00315-.19845-.00315-13.01895-.40635-14.175-.4788-1.0332-.0693-2.0664-.1449-3.09645-.22995-1.1529-.0945-2.29005.3024-2.61135.8568-.31815.55755.3087 1.0647 1.4679 1.16235 6.18975.5229 12.44565.79695 18.7677.79695.84735 0 1.68525-.00945 2.52315-.0189 1.16235-.0189 1.50885-.43155.8442-1.0017-.6678-.57645-1.638-1.10565-2.25225-1.0962"/><path d="m616.357035 412.97256c-.6615.6426-.34335.99225.81585.90405 5.56605-.4284 11.1825-.65205 16.85565-.65205 17.71245 0 34.93665 2.10735 51.44895 6.0669 1.134.2709 1.6569-.0063 1.28835-.693-.378-.693-1.49625-1.52145-2.6271-1.77975-16.1154-3.71385-32.88285-5.69835-50.1102-5.69835-4.8573 0-9.6768.16065-14.4585.4725-1.1592.0756-2.54835.7434-3.213 1.3797" opacity=".8"/><path d="m420.72345 576.881865c22.4847-83.84985 93.22425-148.14765 180.49185-161.20755 1.14975-.17325 1.38285-.5859.5922-1.06155-.7938-.47565-2.30265-.82215-3.44925-.6363-41.19255 6.6528-78.6366 24.63615-109.0341 50.6394-.87885.75285-1.9782 2.2365-2.65545 3.17835-.9639 1.3356-2.205 2.4633-3.6414 3.3012-1.0017.5859-2.58615 1.5372-3.4209 2.3436-28.59255 27.50265-49.8834 62.5464-60.6312 101.8962-.30555 1.1214-.10395 2.32155.38115 2.7531.48195.43155 1.0647-.08505 1.3671-1.20645" opacity=".8"/><path d="m827.13645 740.891025c-.5607 1.0143-1.2474 2.75625-1.72935 3.81465-.32445.70875-.7182 1.37655-1.1781 2.0097-.68355.93555-1.86795 2.3814-2.4822 3.3705-34.82955 56.12985-94.11885 95.571-162.86445 103.30425-1.1529.1323-2.49165.80325-3.087 1.4427-.5859.63315-.1953.99855.9576.882 112.25025-11.41875 200.1321-106.47945 200.1321-221.68755 0-98.57295-64.30725-182.3976-153.16245-211.7304-1.09935-.36225-2.4885-.24255-3.16575.1512-.6741.39375-.36855.90405.7371 1.26 88.9308 28.51695 153.49005 112.01715 153.49005 210.3192 0 38.74185-10.0422 75.18105-27.64755 106.86375" opacity=".8"/><path d="m788.272065 763.749945c-.4347-.3906-1.35765-.01575-2.1168.85995-33.05925 38.4615-80.41005 64.2978-133.73955 69.1614-1.15605.1071-1.2474.4536-.2772.9513.9702.49455 2.61765.93555 3.7737.80955 52.5168-5.66055 99.0864-31.46535 131.80545-69.51105.756-.882.98595-1.8837.5544-2.27115"/><path d="m805.76622 530.47008c18.3015 30.24945 28.85715 65.6901 28.85715 103.55625 0 33.4089-8.2215 64.9341-22.73355 92.66985-.5355 1.03005-.4095 1.67265.3213 1.5372.7308-.1386 1.77345-1.008 2.30265-2.0412 14.1876-27.66645 22.2075-58.99635 22.2075-92.16585 0-37.79685-10.4013-73.2123-28.4823-103.5342-.5922-.99855-1.3482-1.76715-1.6695-1.7262-.1953.02205-.38745.04095-.5859.04095-.22365 0-.441-.0189-.6615-.045688-.3591-.039362-.1575.716638.44415 1.708888" opacity=".9"/><path d="m794.984085 514.43847c.69615.9324 1.37655 1.1529 1.64115.51975.2583-.63315-.0189-1.8711-.72135-2.7972-37.0251-49.08015-95.8041-80.86995-161.87535-80.86995-45.6309 0-87.7842 15.16725-121.70025 40.70745-.92925.6993-1.33875 1.60335-.9828 2.06325s1.35135.28665 2.27745-.4095c33.5601-25.25985 75.26295-40.26015 120.4056-40.26015 65.83815 0 124.35885 31.90005 160.95555 81.04635" opacity=".9"/><path d="m803.05596 743.247225c-.1512-.5166-.4095-.67725-.6237-.35595-.21105.315-.07875.7119.2898.9072.3654.189.4851-.04095.3339-.55125"/><path d="m456.78213 727.95555c-14.9247-28.0413-23.38875-60.0138-23.38875-93.9267 0-57.2166 24.0849-108.9081 62.63775-145.4922.8442-.80325 1.17495-1.74825.7812-2.17665s-1.3545-.1764-2.1987.6237c-38.9718 36.97155-63.3213 89.2143-63.3213 147.04515 0 33.7806 8.316 65.646 22.995 93.6873.53865 1.0269 1.55295 1.8459 2.24595 1.9089.693.06615.7938-.64575.24885-1.6695" opacity=".9"/><path d="m466.825905 746.59725c-.27405.63315-.0252 1.9026.63945 2.8539 36.6471 52.7058 97.64055 87.2676 166.5657 87.2676.5229 0 1.0458-.0063 1.5687-.01575.8631-.00945 2.20815-.62685 3.1059-1.2285.9009-.60795.76545-.93555-.39375-.91035-1.42695.03465-2.85075.05355-4.28085.05355-68.6826 0-129.40515-34.6815-165.5892-87.44715-.65835-.96075-1.3419-1.2033-1.61595-.5733" opacity=".9"/><path d="m813.364335 666.58599c-.2079 1.1403-.3339 2.43495-.3024 2.89485.0189.2772.03465.5544.03465.8379 0 1.79865-.3717 3.5091-1.0332 5.07465-.4536 1.071-1.1907 2.78145-1.47735 3.90285-1.85535 7.2261-4.13595 14.2758-6.8292 21.12705-.42525 1.0836-.3024 2.0097.27405 2.13255s1.38915-.60165 1.81125-1.6821c8.09235-20.73645 12.54645-43.27785 12.54645-66.84615 0-74.45655-44.352-138.7386-108.0135-167.8257-1.05525-.4851-1.43325-.2331-.96705.6174s1.59705 1.9845 2.646 2.4822c61.5699 29.29185 104.23665 92.11545 104.23665 164.7261 0 11.11005-1.0143 21.99015-2.92635 32.5584"/><path d="m791.864955 725.07015c-31.5504 54.4824-90.47745 91.22085-157.8339 91.22085-100.5228 0-182.3031-81.76455-182.3031-182.26215 0-40.2381 13.10715-77.46795 35.27055-107.65755.6867-.93555 1.06155-2.31525.94185-3.11535-.1197-.79695-.6993-.7056-1.3986.2205-23.1651 30.8259-36.91485 69.111-36.91485 110.5524 0 101.65365 82.72215 184.36005 184.40415 184.36005 68.03055 0 127.5624-37.04085 159.50655-92.01465.58275-1.00485.63945-2.079.1827-2.4381-.46935-.3654-1.2726.1323-1.85535 1.134"/><path d="m501.677505 508.802805c33.2514-35.12565 80.2809-57.07485 132.35355-57.07485 19.45125 0 38.20635 3.0681 55.7928 8.74125 1.10565.35595 2.7216.31185 3.6603.0252.9387-.2961.84105-.7308-.25515-1.10565-18.58815-6.32205-38.4993-9.76185-59.19795-9.76185-53.4366 0-101.63475 22.8501-135.34605 59.2893-.7875.8505-.9828 1.4679-.441 1.42065.32445-.0315.65205-.04725.98595-.04725.16695 0 .33705.00315.504.0126.28035.01575 1.1466-.6552 1.94355-1.4994"/><path d="m621.93726 799.14114c-1.15605-.08505-2.60505-.0567-3.2445.0126-.38115.04095-.7686.0567-1.16235.0567-.85365 0-1.67895-.10395-2.4696-.2898-1.13085-.2709-2.709-.75915-3.59415-.86625-.88515-.1134-2.2491.252-3.12165.70875-.8694.45045-.70245.8568.44415 1.03005 8.2341 1.2537 16.66035 1.9278 25.24095 1.9278 23.99985 0 46.8153-5.10615 67.48245-14.22855 1.06155-.46935 1.60965-1.2348 1.2852-1.7262-.3213-.48825-1.3986-.5229-2.4633-.0567-20.31435 8.91765-42.7329 13.91355-66.30435 13.91355-4.0698 0-8.09865-.17955-12.09285-.48195"/><path d="m766.01889 533.28618c.21105-.0126.4284-.01575.63945-.01575.2331 0 .46935.00315.70245.019397.3906.021553.14175-.693497-.57015-1.613297-15.4854-20.04975-35.39655-36.51795-58.2624-47.90205-1.0395-.51975-2.2869-.5607-2.81925-.16695-.52605.40005-.1323 1.08045.9072 1.59075 22.4847 11.0124 42.1092 26.98605 57.4749 46.4751.71505.9135 1.57815 1.62855 1.9278 1.6128"/><path d="m724.04766 774.168885c.252.52605 1.20645.46305 2.1735-.1764 31.689-20.93805 55.89045-52.3152 67.63365-89.2206.34965-1.1025.17955-2.17035-.3528-2.4255-.5292-.25515-1.2159.40635-1.56555 1.512-11.53215 36.4644-35.3745 67.48875-66.6288 88.22205-.96705.6426-1.512 1.5561-1.26 2.08845"/><path d="m798.272685 654.939495c-.14805 1.1466.04725 2.0475.45045 2.025846.23625-.012996.47565-.019296.7182-.019296.1134 0 .22995.0063.3402.00945.18585.0126.4662-.91035.60795-2.0601.85995-6.84495 1.33875-13.80015 1.33875-20.86875 0-29.9061-7.9002-57.98205-21.67515-82.3158-.57015-1.01115-1.21905-1.2663-1.51515-.6111-.29295.65205-.12285 1.9719.441 2.98935 13.1292 23.7195 20.64825 50.9607 20.64825 79.93755 0 7.08435-.48195 14.05845-1.3545 20.91285"/><path d="m589.18671 793.42578c-44.1063-12.4173-80.78175-42.68565-101.75445-82.47015-.5418-1.0269-1.38285-1.638-1.92465-1.4238-.5418.2205-.57645 1.17495-.0378 2.205 21.672 41.2398 59.9823 72.40905 105.9786 84.4893 1.12455.29295 1.43325-.0189.8064-.7812-.63-.77175-1.953-1.70415-3.0681-2.01915"/><path d="m470.17908 609.852285c.1701-1.14975-.1512-2.11365-.72135-2.2239-.5733-.10395-1.17495.6867-1.34505 1.83645-1.1844 8.0199-1.81755 16.21935-1.81755 24.5637 0 19.42605 3.32325 38.0898 9.42795 55.4526.3843 1.09935 1.11195 1.72935 1.6443 1.48365.5292-.2457.65835-1.2789.27405-2.3751-5.985-17.09505-9.24525-35.45325-9.24525-54.56115 0-8.2152.62055-16.28235 1.7829-24.17625"/><path d="m481.060755 570.62628c5.5314-13.29615 12.7449-25.71345 21.3759-36.9999.7056-.9261.5733-1.34505-.3528-1.1088s-2.27115 1.04895-2.96415 1.98135c-8.379 11.33055-15.3468 23.75415-20.6892 37.0062-.4347 1.08045-.2142 1.6884.504 1.44585.7245-.24885 1.6821-1.25055 2.12625-2.3247"/><path d="m569.64537 480.2868c-.12285-.57645-1.04895-.68985-2.11365-.22995-21.0924 9.14445-39.942 22.50045-55.4967 39.00015-.79695.84105-1.4112 1.7577-1.39545 2.03175.00945.16065.0126.3276.0126.49455 0 .4032-.02205.8064-.06615 1.20015-.07245.65835.43155.4851 1.21275-.3717 15.6051-17.07615 34.70985-30.8952 56.1897-40.27275 1.0647-.46305 1.7829-1.27575 1.6569-1.8522"/><path d="m592.875045 472.487085c.25515.5355 1.3293.75915 2.457.4851 12.42045-2.98305 25.3764-4.57695 38.69775-4.57695 16.84305 0 33.09075 2.5515 48.4155 7.24815 1.11195.3402 1.86795.1134 1.77345-.5355-.1071-.64575-1.03005-1.4616-2.142-1.79235-15.23025-4.56435-31.35195-7.0245-48.04695-7.0245-13.6458 0-26.9136 1.6443-39.6207 4.73445-1.1277.27405-1.7892.92295-1.53405 1.4616"/><path d="m769.418055 563.85252c-.57645-1.1025-1.1592-2.1987-1.76085-3.28545-.56385-1.01745-1.6065-1.827-2.3184-1.89945-.7119-.06615-.8064.6237-.2331 1.63485.7308 1.30095 1.4427 2.61135 2.13885 3.9312.53865 1.0269 1.43955 1.72305 2.03805 1.6191s.6741-.9702.13545-2.00025"/><path d="m544.206915 755.9181c-.57015-1.01115-1.6002-2.4822-2.51685-3.2004-35.35245-27.55305-58.13955-70.50645-58.13955-118.68885 0-12.2409 1.4679-24.1416 4.23675-35.5383.2772-1.1277.00945-1.8144-.6363-1.6065-.6426.2079-1.4112 1.23165-1.6758 2.3625-2.6208 11.17935-4.0257 22.81545-4.0257 34.7823 0 68.59755 45.5364 126.7245 107.96625 145.8513 1.11195.3402 2.29005.1701 2.68065-.3213.39375-.49455-.1575-1.11825-1.26945-1.44585-12.26295-3.6855-23.8707-8.8767-34.60905-15.39405-.99225-.5985-1.8774-1.09305-1.9845-1.08045-.063.00945-.12915.01575-.1953.01575-4.24305 0-7.9065-2.3184-9.83115-5.73615"/><path d="m754.31727 542.1087c.2142-.6615-.1197-1.9215-.84735-2.8287-7.5789-9.5445-16.2603-18.1692-25.87095-25.6599-.91665-.71505-1.89315-.86625-2.2302-.39375s.09135 1.38915 1.00485 2.1042c9.81855 7.6608 18.67005 16.50915 26.3277 26.334.71505.9135 1.3986 1.1088 1.61595.44415"/><path d="m669.359565 487.78506c13.2678 3.2067 25.8489 8.17425 37.48815 14.6412 1.01745.567 2.0286.60795 2.3373.11655.3024-.49455-.2142-1.3356-1.22535-1.89945-12.0204-6.6906-25.0236-11.8062-38.74815-15.06015-1.1277-.2646-1.9782-.0378-1.93095.4977.02835.3213.0441.6426.0441.9702 0 .0441-.00315.08505-.00315.12915-.0063.0693.9072.3339 2.03805.6048"/><path d="m618.92712 483.26292c-.1386-.5733-1.13085-.95445-2.2869-.82215-55.49985 6.32205-102.0285 42.5565-123.0894 92.1249-.4536 1.06785-.43155 2.34675-.0252 2.898.4095.55125 1.03635.1575 1.48365-.91665 20.5632-49.55895 66.8493-85.84065 122.13495-92.043 1.14975-.12915 1.91835-.6678 1.7829-1.2411"/><path d="m778.47147 585.01359c-.3717-1.09935-1.04895-1.6443-1.54035-1.2915-.4977.35595-.6174 1.48365-.2457 2.583 5.03055 15.00345 7.78995 31.0464 7.78995 47.7225 0 82.9584-67.4919 150.44715-150.444 150.44715-1.27575 0-2.5452-.02835-3.80835-.0756-1.16235-.03465-1.9278.3843-1.7829.9702.14805.58905 1.1529 1.1088 2.3121 1.14345 1.0899.0378 2.1798.06615 3.27915.06615 84.11445 0 152.54505-68.43375 152.54505-152.55135 0-17.13915-2.86335-33.6231-8.10495-49.014"/><path d="m771.313095 623.19978c.5985.2142.99225-.50085.8946-1.6569-5.4495-60.8013-50.22675-110.43585-108.65295-123.1461-1.13085-.24885-2.69955.02205-3.56265.45675-.85995.43785-.67725.85365.46305 1.08045 58.51755 11.51325 103.7295 60.48315 109.5696 120.83715.11025 1.1529.68985 2.2176 1.28835 2.42865"/><path d="m712.1646 746.560395c-.62685.5481-1.3167 1.01745-2.0601 1.4112-1.0269.53865-2.7342 1.3041-3.717 1.9215-21.00105 13.16385-45.7947 20.81205-72.35865 20.81205-24.3432 0-47.20275-6.426-67.0194-17.62425-1.01115-.57015-1.8837-.5607-2.0286.0252-.1449.58905.50085 1.5246 1.512 2.08845 20.00565 11.1951 43.029 17.6085 67.536 17.6085 71.97435 0 131.28255-55.09035 138.08655-125.30385.11025-1.1529-.28035-1.8774-.87885-1.6695-.5985.21105-1.18125 1.26945-1.30095 2.4192-4.06035 39.07575-24.6393 73.29105-54.6273 95.54895-.93555.69615-2.26485 2.0034-3.1437 2.76255"/><path d="m561.73194 516.785535c.67725.25515 2.00025.03465 3.00195-.5544 20.3301-12.00465 44.02125-18.9063 69.29685-18.9063 3.276 0 6.5205.1386 9.73665.37485 1.1592.08505 1.4553-.26775.75285-.9009-.7056-.63315-2.13885-1.29465-3.2949-1.35765-2.3877-.13545-4.77855-.2205-7.1946-.2205-26.2521 0-50.8095 7.3521-71.76645 20.06865-.99225.6048-1.2096 1.2411-.53235 1.49625"/><path d="m542.23974 735.1785c-27.5625-25.0173-44.9127-61.08795-44.9127-101.14965 0-40.9941 18.1566-77.8176 46.83735-102.8916.87255-.76545 1.5057-1.82385 1.4553-2.37825-.03465-.3339-.05355-.67095-.05355-1.01745 0-.10395.0063-.20475.0126-.3087.00945-.17325-.7056.28665-1.5876 1.0395-29.82735 25.48035-48.7683 63.3465-48.7683 105.5565 0 40.65705 17.6022 77.2632 45.5616 102.66795.85995.7812 1.8522 1.0269 2.25855.6048.40005-.41895.0567-1.34505-.80325-2.1231"/><path d="m634.029795 760.286205c21.672 0 42.0714-5.51565 59.913-15.17985 1.0206-.55125 1.5813-1.4175 1.3293-1.9404-.2583-.5229-1.2348-.504-2.2491.0504-17.5644 9.52245-37.6488 14.96565-58.9932 14.96565-68.4747 0-124.18245-55.69515-124.18245-124.1541 0-37.33695 16.5753-70.85925 42.7392-93.6432.8757-.75915 1.0773-1.50255.46935-1.74195-.6111-.2394-1.79235.1197-2.66175.89145-26.12925 23.1525-42.64785 56.9205-42.64785 94.4937 0 69.61815 56.65275 126.2583 126.2835 126.2583"/><path d="m712.927215 731.151855c.4032.42525 1.4175.2079 2.30265-.53865 24.6141-20.72385 41.19885-50.66145 44.43705-84.4452.1071-1.15605.00945-2.22075-.2079-2.3625-.2142-.1512-.32445.0315-.2772.4284.0252.2394.04725.48195.04725.72765 0 1.73565-.4284 3.36105-1.16865 4.80375-.53235 1.0332-1.26315 2.69955-1.449 3.84615-4.79115 30.12345-20.4498 56.65905-42.83055 75.474-.88515.7434-1.25685 1.6443-.85365 2.0664"/><path d="m571.166505 526.973895c18.44955-10.87695 39.93885-17.12655 62.86455-17.12655 62.5212 0 114.36705 46.4814 122.8878 106.7031.1638 1.14975.91035 2.5767 1.58445 3.2823.67725.7119 1.0395.4284.90405-.7245-7.4025-62.6283-60.80445-111.3651-125.3763-111.3651-22.9446 0-44.46855 6.1614-63.02835 16.89975-1.00485.58275-1.7262 1.5183-1.67265 2.079.03465.33705.05355.67725.05355 1.0206 0 .05355-.00315.1071-.00945.1575-.0063.08505.7938-.33705 1.79235-.9261"/></g></svg>